<svg width="672" height="315" viewBox="0 0 672 315" fill="none" xmlns="http://www.w3.org/2000/svg">
<path d="M39.2414 30.35V40.625H17.7914V51.725H33.8414V61.7H17.7914V83H4.96641V30.35H39.2414ZM73.882 83.525C68.932 83.525 64.382 82.375 60.232 80.075C56.132 77.775 52.857 74.575 50.407 70.475C48.007 66.325 46.807 61.675 46.807 56.525C46.807 51.375 48.007 46.75 50.407 42.65C52.857 38.55 56.132 35.35 60.232 33.05C64.382 30.75 68.932 29.6 73.882 29.6C78.832 29.6 83.357 30.75 87.457 33.05C91.607 35.35 94.857 38.55 97.207 42.65C99.607 46.75 100.807 51.375 100.807 56.525C100.807 61.675 99.607 66.325 97.207 70.475C94.807 74.575 91.557 77.775 87.457 80.075C83.357 82.375 78.832 83.525 73.882 83.525ZM73.882 71.825C78.082 71.825 81.432 70.425 83.932 67.625C86.482 64.825 87.757 61.125 87.757 56.525C87.757 51.875 86.482 48.175 83.932 45.425C81.432 42.625 78.082 41.225 73.882 41.225C69.632 41.225 66.232 42.6 63.682 45.35C61.182 48.1 59.932 51.825 59.932 56.525C59.932 61.175 61.182 64.9 63.682 67.7C66.232 70.45 69.632 71.825 73.882 71.825ZM137.792 83L126.842 63.125H123.767V83H110.942V30.35H132.467C136.617 30.35 140.142 31.075 143.042 32.525C145.992 33.975 148.192 35.975 149.642 38.525C151.092 41.025 151.817 43.825 151.817 46.925C151.817 50.425 150.817 53.55 148.817 56.3C146.867 59.05 143.967 61 140.117 62.15L152.267 83H137.792ZM123.767 54.05H131.717C134.067 54.05 135.817 53.475 136.967 52.325C138.167 51.175 138.767 49.55 138.767 47.45C138.767 45.45 138.167 43.875 136.967 42.725C135.817 41.575 134.067 41 131.717 41H123.767V54.05ZM219.636 30.35V40.625H205.686V83H192.861V40.625H178.911V30.35H219.636ZM274.673 30.35V83H261.848V61.325H241.898V83H229.073V30.35H241.898V50.975H261.848V30.35H274.673ZM299.756 40.625V51.275H316.931V61.175H299.756V72.725H319.181V83H286.931V30.35H319.181V40.625H299.756ZM362.226 73.1H379.026V83H349.401V30.35H362.226V73.1ZM413.043 83.525C408.093 83.525 403.543 82.375 399.393 80.075C395.293 77.775 392.018 74.575 389.568 70.475C387.168 66.325 385.968 61.675 385.968 56.525C385.968 51.375 387.168 46.75 389.568 42.65C392.018 38.55 395.293 35.35 399.393 33.05C403.543 30.75 408.093 29.6 413.043 29.6C417.993 29.6 422.518 30.75 426.618 33.05C430.768 35.35 434.018 38.55 436.368 42.65C438.768 46.75 439.968 51.375 439.968 56.525C439.968 61.675 438.768 66.325 436.368 70.475C433.968 74.575 430.718 77.775 426.618 80.075C422.518 82.375 417.993 83.525 413.043 83.525ZM413.043 71.825C417.243 71.825 420.593 70.425 423.093 67.625C425.643 64.825 426.918 61.125 426.918 56.525C426.918 51.875 425.643 48.175 423.093 45.425C420.593 42.625 417.243 41.225 413.043 41.225C408.793 41.225 405.393 42.6 402.843 45.35C400.343 48.1 399.093 51.825 399.093 56.525C399.093 61.175 400.343 64.9 402.843 67.7C405.393 70.45 408.793 71.825 413.043 71.825ZM499.528 30.35L480.853 83H464.803L446.128 30.35H459.778L472.828 70.1L485.953 30.35H499.528ZM520.713 40.625V51.275H537.888V61.175H520.713V72.725H540.138V83H507.888V30.35H540.138V40.625H520.713ZM595.258 83.525C590.308 83.525 585.758 82.375 581.608 80.075C577.508 77.775 574.233 74.575 571.783 70.475C569.383 66.325 568.183 61.675 568.183 56.525C568.183 51.375 569.383 46.75 571.783 42.65C574.233 38.55 577.508 35.35 581.608 33.05C585.758 30.75 590.308 29.6 595.258 29.6C600.208 29.6 604.733 30.75 608.833 33.05C612.983 35.35 616.233 38.55 618.583 42.65C620.983 46.75 622.183 51.375 622.183 56.525C622.183 61.675 620.983 66.325 618.583 70.475C616.183 74.575 612.933 77.775 608.833 80.075C604.733 82.375 600.208 83.525 595.258 83.525ZM595.258 71.825C599.458 71.825 602.808 70.425 605.308 67.625C607.858 64.825 609.133 61.125 609.133 56.525C609.133 51.875 607.858 48.175 605.308 45.425C602.808 42.625 599.458 41.225 595.258 41.225C591.008 41.225 587.608 42.6 585.058 45.35C582.558 48.1 581.308 51.825 581.308 56.525C581.308 61.175 582.558 64.9 585.058 67.7C587.608 70.45 591.008 71.825 595.258 71.825ZM666.593 30.35V40.625H645.143V51.725H661.193V61.7H645.143V83H632.318V30.35H666.593Z" fill="url(#paint0_linear_1120_804)"/>
<path d="M50.5588 138.65L51.0272 137.766L51.0272 137.766L50.5588 138.65ZM60.1588 147.95L59.2872 148.44L59.2909 148.447L59.2946 148.453L60.1588 147.95ZM60.1588 175.4L59.2918 174.902L59.2872 174.91L60.1588 175.4ZM50.4838 184.7L50.0198 183.814L50.0154 183.816L50.4838 184.7ZM16.2838 188H15.2838V189H16.2838V188ZM16.2838 135.35V134.35H15.2838V135.35H16.2838ZM29.1088 146.3V145.3H28.1088V146.3H29.1088ZM29.1088 176.9H28.1088V177.9H29.1088V176.9ZM36.0088 136.35C41.4251 136.35 46.1088 137.423 50.0904 139.534L51.0272 137.766C46.7088 135.477 41.6925 134.35 36.0088 134.35V136.35ZM50.0904 139.534C54.0753 141.646 57.1335 144.611 59.2872 148.44L61.0304 147.46C58.6841 143.289 55.3423 140.054 51.0272 137.766L50.0904 139.534ZM59.2946 148.453C61.494 152.23 62.6088 156.627 62.6088 161.675H64.6088C64.6088 156.323 63.4236 151.57 61.023 147.447L59.2946 148.453ZM62.6088 161.675C62.6088 166.671 61.4949 171.07 59.2919 174.902L61.0257 175.898C63.4227 171.73 64.6088 166.979 64.6088 161.675H62.6088ZM59.2872 174.91C57.1352 178.735 54.0545 181.701 50.0198 183.814L50.9478 185.586C55.313 183.299 58.6823 180.065 61.0304 175.89L59.2872 174.91ZM50.0154 183.816C46.0325 185.928 41.3735 187 36.0088 187V189C41.6441 189 46.6351 187.872 50.9522 185.584L50.0154 183.816ZM36.0088 187H16.2838V189H36.0088V187ZM17.2838 188V135.35H15.2838V188H17.2838ZM16.2838 136.35H36.0088V134.35H16.2838V136.35ZM35.1838 177.9C40.2186 177.9 44.2736 176.52 47.2093 173.639L45.8083 172.211C43.3439 174.63 39.849 175.9 35.1838 175.9V177.9ZM47.2093 173.639C50.151 170.751 51.5588 166.714 51.5588 161.675H49.5588C49.5588 166.336 48.2666 169.799 45.8083 172.211L47.2093 173.639ZM51.5588 161.675C51.5588 156.635 50.1507 152.578 47.2159 149.643L45.8017 151.057C48.2669 153.522 49.5588 157.015 49.5588 161.675H51.5588ZM47.2159 149.643C44.2811 146.708 40.2237 145.3 35.1838 145.3V147.3C39.8439 147.3 43.3365 148.592 45.8017 151.057L47.2159 149.643ZM35.1838 145.3H29.1088V147.3H35.1838V145.3ZM28.1088 146.3V176.9H30.1088V146.3H28.1088ZM29.1088 177.9H35.1838V175.9H29.1088V177.9ZM85.851 145.625V144.625H84.851V145.625H85.851ZM85.851 156.275H84.851V157.275H85.851V156.275ZM103.026 156.275H104.026V155.275H103.026V156.275ZM103.026 166.175V167.175H104.026V166.175H103.026ZM85.851 166.175V165.175H84.851V166.175H85.851ZM85.851 177.725H84.851V178.725H85.851V177.725ZM105.276 177.725H106.276V176.725H105.276V177.725ZM105.276 188V189H106.276V188H105.276ZM73.026 188H72.026V189H73.026V188ZM73.026 135.35V134.35H72.026V135.35H73.026ZM105.276 135.35H106.276V134.35H105.276V135.35ZM105.276 145.625V146.625H106.276V145.625H105.276ZM84.851 145.625V156.275H86.851V145.625H84.851ZM85.851 157.275H103.026V155.275H85.851V157.275ZM102.026 156.275V166.175H104.026V156.275H102.026ZM103.026 165.175H85.851V167.175H103.026V165.175ZM84.851 166.175V177.725H86.851V166.175H84.851ZM85.851 178.725H105.276V176.725H85.851V178.725ZM104.276 177.725V188H106.276V177.725H104.276ZM105.276 187H73.026V189H105.276V187ZM74.026 188V135.35H72.026V188H74.026ZM73.026 136.35H105.276V134.35H73.026V136.35ZM104.276 135.35V145.625H106.276V135.35H104.276ZM105.276 144.625H85.851V146.625H105.276V144.625ZM128.677 178.1H127.677V179.1H128.677V178.1ZM145.477 178.1H146.477V177.1H145.477V178.1ZM145.477 188V189H146.477V188H145.477ZM115.852 188H114.852V189H115.852V188ZM115.852 135.35V134.35H114.852V135.35H115.852ZM128.677 135.35H129.677V134.35H128.677V135.35ZM128.677 179.1H145.477V177.1H128.677V179.1ZM144.477 178.1V188H146.477V178.1H144.477ZM145.477 187H115.852V189H145.477V187ZM116.852 188V135.35H114.852V188H116.852ZM115.852 136.35H128.677V134.35H115.852V136.35ZM127.677 135.35V178.1H129.677V135.35H127.677ZM166.669 135.35H167.669V134.35H166.669V135.35ZM166.669 188V189H167.669V188H166.669ZM153.844 188H152.844V189H153.844V188ZM153.844 135.35V134.35H152.844V135.35H153.844ZM165.669 135.35V188H167.669V135.35H165.669ZM166.669 187H153.844V189H166.669V187ZM154.844 188V135.35H152.844V188H154.844ZM153.844 136.35H166.669V134.35H153.844V136.35ZM179.413 147.725L180.288 148.211L180.29 148.206L179.413 147.725ZM188.788 138.2L189.279 139.072L189.282 139.07L188.788 138.2ZM218.563 139.7L219.159 138.897L219.159 138.897L218.563 139.7ZM227.488 153.2V154.2H228.786L228.456 152.946L227.488 153.2ZM213.388 153.2L212.486 153.631L212.758 154.2H213.388V153.2ZM208.888 148.175L208.371 149.031L208.38 149.036L208.888 148.175ZM192.763 150.575L193.51 151.24L193.51 151.24L192.763 150.575ZM208.888 175.025L208.38 174.164L208.371 174.169L208.888 175.025ZM213.388 170V169H212.758L212.486 169.569L213.388 170ZM227.488 170L228.456 170.254L228.786 169H227.488V170ZM218.563 183.5L219.153 184.308L219.159 184.303L218.563 183.5ZM188.788 185L188.29 185.867L188.296 185.871L188.303 185.874L188.788 185ZM179.413 175.475L180.288 174.989L180.288 174.989L179.413 175.475ZM177.038 161.6C177.038 156.549 178.13 152.095 180.288 148.211L178.539 147.239C176.197 151.455 175.038 156.251 175.038 161.6H177.038ZM180.29 148.206C182.452 144.266 185.445 141.228 189.279 139.072L188.298 137.328C184.132 139.672 180.875 142.984 178.537 147.244L180.29 148.206ZM189.282 139.07C193.168 136.863 197.57 135.75 202.513 135.75V133.75C197.257 133.75 192.509 134.937 188.295 137.33L189.282 139.07ZM202.513 135.75C208.578 135.75 213.712 137.347 217.968 140.503L219.159 138.897C214.515 135.453 208.949 133.75 202.513 133.75V135.75ZM217.968 140.503C222.223 143.659 225.075 147.959 226.521 153.454L228.456 152.946C226.902 147.041 223.804 142.341 219.159 138.897L217.968 140.503ZM227.488 152.2H213.388V154.2H227.488V152.2ZM214.291 152.769C213.162 150.404 211.531 148.573 209.396 147.314L208.38 149.036C210.146 150.077 211.515 151.596 212.486 153.631L214.291 152.769ZM209.406 147.319C207.334 146.065 204.977 145.45 202.363 145.45V147.45C204.65 147.45 206.643 147.985 208.371 149.03L209.406 147.319ZM202.363 145.45C198.152 145.45 194.672 146.93 192.017 149.91L193.51 151.24C195.755 148.72 198.675 147.45 202.363 147.45V145.45ZM192.017 149.91C189.366 152.885 188.088 156.818 188.088 161.6H190.088C190.088 157.182 191.261 153.765 193.51 151.24L192.017 149.91ZM188.088 161.6C188.088 166.382 189.366 170.315 192.017 173.29L193.51 171.96C191.261 169.435 190.088 166.018 190.088 161.6H188.088ZM192.017 173.29C194.672 176.27 198.152 177.75 202.363 177.75V175.75C198.675 175.75 195.755 174.48 193.51 171.96L192.017 173.29ZM202.363 177.75C204.977 177.75 207.334 177.135 209.406 175.88L208.371 174.169C206.643 175.215 204.65 175.75 202.363 175.75V177.75ZM209.396 175.886C211.531 174.627 213.162 172.796 214.291 170.431L212.486 169.569C211.515 171.604 210.146 173.123 208.38 174.164L209.396 175.886ZM213.388 171H227.488V169H213.388V171ZM226.521 169.746C225.075 175.241 222.223 179.541 217.968 182.697L219.159 184.303C223.804 180.859 226.902 176.159 228.456 170.254L226.521 169.746ZM217.974 182.692C213.717 185.801 208.581 187.375 202.513 187.375V189.375C208.946 189.375 214.51 187.699 219.153 184.308L217.974 182.692ZM202.513 187.375C197.566 187.375 193.161 186.285 189.274 184.126L188.303 185.874C192.516 188.215 197.261 189.375 202.513 189.375V187.375ZM189.287 184.133C185.445 181.924 182.45 178.881 180.288 174.989L178.539 175.961C180.877 180.169 184.132 183.476 188.29 185.867L189.287 184.133ZM180.288 174.989C178.13 171.105 177.038 166.651 177.038 161.6H175.038C175.038 166.949 176.197 171.745 178.539 175.961L180.288 174.989ZM250.417 135.35H251.417V134.35H250.417V135.35ZM250.417 188V189H251.417V188H250.417ZM237.592 188H236.592V189H237.592V188ZM237.592 135.35V134.35H236.592V135.35H237.592ZM249.417 135.35V188H251.417V135.35H249.417ZM250.417 187H237.592V189H250.417V187ZM238.592 188V135.35H236.592V188H238.592ZM237.592 136.35H250.417V134.35H237.592V136.35ZM273.212 185.075L272.722 185.947L272.727 185.95L273.212 185.075ZM263.387 175.475L262.521 175.976L262.524 175.982L262.528 175.988L263.387 175.475ZM263.387 147.65L262.528 147.137L262.524 147.145L263.387 147.65ZM273.212 138.05L272.727 137.175L272.722 137.178L273.212 138.05ZM300.437 138.05L299.947 138.922L299.952 138.925L300.437 138.05ZM310.187 147.65L309.319 148.147L309.324 148.155L310.187 147.65ZM310.187 175.475L311.05 175.98L311.052 175.976L310.187 175.475ZM300.437 185.075L300.926 185.947L300.926 185.947L300.437 185.075ZM296.912 172.625L296.172 171.952L296.166 171.959L296.912 172.625ZM296.912 150.425L296.166 151.091L296.172 151.098L296.178 151.105L296.912 150.425ZM276.662 150.35L275.928 149.67L275.922 149.677L276.662 150.35ZM276.662 172.7L275.916 173.366L275.922 173.373L275.928 173.38L276.662 172.7ZM286.862 187.525C282.074 187.525 277.691 186.415 273.696 184.2L272.727 185.95C277.032 188.335 281.75 189.525 286.862 189.525V187.525ZM273.701 184.203C269.756 181.99 266.607 178.915 264.245 174.962L262.528 175.988C265.066 180.235 268.467 183.56 272.722 185.947L273.701 184.203ZM264.252 174.974C261.947 170.988 260.787 166.513 260.787 161.525H258.787C258.787 166.837 260.026 171.662 262.521 175.976L264.252 174.974ZM260.787 161.525C260.787 156.537 261.947 152.089 264.25 148.155L262.524 147.145C260.026 151.411 258.787 156.213 258.787 161.525H260.787ZM264.245 148.163C266.607 144.21 269.756 141.135 273.701 138.922L272.722 137.178C268.467 139.565 265.066 142.89 262.528 147.137L264.245 148.163ZM273.696 138.925C277.691 136.71 282.074 135.6 286.862 135.6V133.6C281.75 133.6 277.032 134.79 272.727 137.175L273.696 138.925ZM286.862 135.6C291.65 135.6 296.005 136.71 299.947 138.922L300.926 137.178C296.668 134.79 291.973 133.6 286.862 133.6V135.6ZM299.952 138.925C303.943 141.137 307.06 144.206 309.319 148.147L311.054 147.153C308.613 142.894 305.23 139.563 300.921 137.175L299.952 138.925ZM309.324 148.155C311.626 152.089 312.787 156.537 312.787 161.525H314.787C314.787 156.213 313.547 151.411 311.05 147.145L309.324 148.155ZM312.787 161.525C312.787 166.513 311.626 170.988 309.321 174.974L311.052 175.976C313.547 171.662 314.787 166.837 314.787 161.525H312.787ZM309.324 174.97C307.012 178.918 303.891 181.991 299.947 184.203L300.926 185.947C305.182 183.559 308.561 180.232 311.05 175.98L309.324 174.97ZM299.947 184.203C296.005 186.415 291.65 187.525 286.862 187.525V189.525C291.973 189.525 296.668 188.335 300.926 185.947L299.947 184.203ZM286.862 177.825C291.309 177.825 294.944 176.33 297.657 173.291L296.166 171.959C293.879 174.52 290.814 175.825 286.862 175.825V177.825ZM297.651 173.298C300.403 170.276 301.737 166.318 301.737 161.525H299.737C299.737 165.932 298.52 169.374 296.172 171.952L297.651 173.298ZM301.737 161.525C301.737 156.686 300.405 152.722 297.645 149.745L296.178 151.105C298.518 153.628 299.737 157.064 299.737 161.525H301.737ZM297.657 149.759C294.944 146.72 291.309 145.225 286.862 145.225V147.225C290.814 147.225 293.879 148.53 296.166 151.091L297.657 149.759ZM286.862 145.225C282.374 145.225 278.694 146.688 275.928 149.67L277.395 151.03C279.729 148.512 282.849 147.225 286.862 147.225V145.225ZM275.922 149.677C273.213 152.656 271.912 156.645 271.912 161.525H273.912C273.912 157.005 275.11 153.544 277.401 151.023L275.922 149.677ZM271.912 161.525C271.912 166.36 273.215 170.342 275.916 173.366L277.407 172.034C275.108 169.458 273.912 165.99 273.912 161.525H271.912ZM275.928 173.38C278.694 176.362 282.374 177.825 286.862 177.825V175.825C282.849 175.825 279.729 174.538 277.395 172.02L275.928 173.38ZM335.771 135.35H336.771V134.35H335.771V135.35ZM338.096 174.125L337.358 174.799L337.358 174.799L338.096 174.125ZM351.821 174.125L352.55 174.81L352.55 174.81L351.821 174.125ZM354.221 135.35V134.35H353.221V135.35H354.221ZM367.046 135.35H368.046V134.35H367.046V135.35ZM364.046 178.7L364.898 179.224L364.898 179.224L364.046 178.7ZM355.946 186.05L355.51 185.15L355.505 185.153L355.946 186.05ZM333.521 186.125L333.069 187.017L333.077 187.021L333.085 187.025L333.521 186.125ZM325.796 178.775L324.93 179.274L324.933 179.28L325.796 178.775ZM322.946 135.35V134.35H321.946V135.35H322.946ZM334.771 135.35V166.85H336.771V135.35H334.771ZM334.771 166.85C334.771 170.156 335.586 172.856 337.358 174.799L338.835 173.451C337.507 171.994 336.771 169.844 336.771 166.85H334.771ZM337.358 174.799C339.15 176.765 341.731 177.675 344.921 177.675V175.675C342.112 175.675 340.143 174.885 338.835 173.451L337.358 174.799ZM344.921 177.675C348.114 177.675 350.71 176.765 352.55 174.81L351.093 173.44C349.733 174.885 347.729 175.675 344.921 175.675V177.675ZM352.55 174.81C354.378 172.868 355.221 170.164 355.221 166.85H353.221C353.221 169.836 352.465 171.982 351.093 173.44L352.55 174.81ZM355.221 166.85V135.35H353.221V166.85H355.221ZM354.221 136.35H367.046V134.35H354.221V136.35ZM366.046 135.35V166.775H368.046V135.35H366.046ZM366.046 166.775C366.046 171.333 365.078 175.116 363.195 178.176L364.898 179.224C367.015 175.784 368.046 171.617 368.046 166.775H366.046ZM363.195 178.176C361.294 181.265 358.737 183.584 355.51 185.15L356.383 186.95C359.956 185.216 362.799 182.635 364.898 179.224L363.195 178.176ZM355.505 185.153C352.307 186.728 348.711 187.525 344.696 187.525V189.525C348.982 189.525 352.886 188.672 356.388 186.947L355.505 185.153ZM344.696 187.525C340.678 187.525 337.105 186.751 333.958 185.225L333.085 187.025C336.538 188.699 340.415 189.525 344.696 189.525V187.525ZM333.974 185.233C330.901 183.673 328.466 181.36 326.66 178.27L324.933 179.28C326.927 182.69 329.642 185.277 333.069 187.017L333.974 185.233ZM326.663 178.276C324.869 175.16 323.946 171.341 323.946 166.775H321.946C321.946 171.609 322.924 175.79 324.93 179.274L326.663 178.276ZM323.946 166.775V135.35H321.946V166.775H323.946ZM322.946 136.35H335.771V134.35H322.946V136.35ZM387.002 186.65L386.623 187.575L386.623 187.575L387.002 186.65ZM379.652 181.1L378.846 181.692L378.854 181.703L379.652 181.1ZM376.802 172.25V171.25H375.773L375.803 172.279L376.802 172.25ZM390.452 172.25L391.447 172.148L391.355 171.25H390.452V172.25ZM392.477 176.75L391.803 177.488L391.812 177.497L391.821 177.505L392.477 176.75ZM401.477 176.975L402.089 177.766L402.1 177.758L402.111 177.749L401.477 176.975ZM401.777 170.075L401.07 170.782L401.08 170.792L401.091 170.802L401.777 170.075ZM398.552 167.975L398.15 168.89L398.156 168.893L398.163 168.896L398.552 167.975ZM393.152 166.1L392.857 167.056L392.867 167.058L393.152 166.1ZM379.277 158.3L380.075 157.697L380.075 157.697L379.277 158.3ZM382.277 138.8L382.89 139.591L382.897 139.585L382.277 138.8ZM410.177 138.8L409.558 139.585L409.565 139.591L410.177 138.8ZM415.877 150.35V151.35H416.929L416.876 150.3L415.877 150.35ZM402.002 150.35L401.004 150.409L401.059 151.35H402.002V150.35ZM400.127 146.375L399.471 147.13L399.481 147.138L399.49 147.146L400.127 146.375ZM391.952 146.15L392.596 146.915L392.608 146.905L392.619 146.895L391.952 146.15ZM392.927 153.65L393.438 152.79L393.438 152.79L392.927 153.65ZM400.427 156.725L400.748 155.778L400.735 155.774L400.427 156.725ZM408.677 160.025L408.23 160.919L408.239 160.924L408.677 160.025ZM414.227 164.6L413.437 165.213L413.437 165.213L414.227 164.6ZM414.227 180.5L413.382 179.965L413.378 179.972L413.374 179.978L414.227 180.5ZM407.627 186.35L407.18 185.456L407.18 185.456L407.627 186.35ZM397.352 187.525C393.611 187.525 390.293 186.918 387.382 185.725L386.623 187.575C389.812 188.882 393.394 189.525 397.352 189.525V187.525ZM387.382 185.725C384.485 184.538 382.184 182.794 380.45 180.497L378.854 181.703C380.82 184.306 383.42 186.262 386.623 187.575L387.382 185.725ZM380.458 180.508C378.794 178.243 377.897 175.496 377.802 172.221L375.803 172.279C375.908 175.904 376.91 179.057 378.846 181.692L380.458 180.508ZM376.802 173.25H390.452V171.25H376.802V173.25ZM389.458 172.352C389.676 174.481 390.428 176.233 391.803 177.488L393.152 176.012C392.226 175.167 391.629 173.919 391.447 172.148L389.458 172.352ZM391.821 177.505C393.19 178.695 394.94 179.25 396.977 179.25V177.25C395.315 177.25 394.065 176.805 393.134 175.995L391.821 177.505ZM396.977 179.25C399.018 179.25 400.759 178.794 402.089 177.766L400.866 176.184C399.995 176.856 398.736 177.25 396.977 177.25V179.25ZM402.111 177.749C403.466 176.64 404.127 175.119 404.127 173.3H402.127C402.127 174.581 401.689 175.51 400.844 176.201L402.111 177.749ZM404.127 173.3C404.127 171.74 403.575 170.397 402.464 169.348L401.091 170.802C401.78 171.453 402.127 172.26 402.127 173.3H404.127ZM402.484 169.368C401.529 168.412 400.34 167.646 398.942 167.054L398.163 168.896C399.364 169.404 400.326 170.038 401.07 170.782L402.484 169.368ZM398.955 167.06C397.648 166.485 395.802 165.846 393.438 165.142L392.867 167.058C395.203 167.754 396.956 168.365 398.15 168.89L398.955 167.06ZM393.447 165.145C390.075 164.103 387.353 163.071 385.266 162.051L384.389 163.849C386.601 164.929 389.429 165.997 392.857 167.055L393.447 165.145ZM385.266 162.051C383.268 161.075 381.537 159.631 380.075 157.697L378.48 158.903C380.117 161.069 382.087 162.725 384.389 163.849L385.266 162.051ZM380.075 157.697C378.689 155.864 377.952 153.42 377.952 150.275H375.952C375.952 153.73 376.765 156.636 378.48 158.903L380.075 157.697ZM377.952 150.275C377.952 145.652 379.609 142.132 382.89 139.591L381.665 138.009C377.846 140.968 375.952 145.098 375.952 150.275H377.952ZM382.897 139.585C386.228 136.957 390.617 135.6 396.152 135.6V133.6C390.287 133.6 385.426 135.043 381.658 138.015L382.897 139.585ZM396.152 135.6C401.792 135.6 406.229 136.96 409.558 139.585L410.797 138.015C407.026 135.04 402.113 133.6 396.152 133.6V135.6ZM409.565 139.591C412.859 142.142 414.642 145.708 414.879 150.4L416.876 150.3C416.613 145.092 414.596 140.958 410.79 138.009L409.565 139.591ZM415.877 149.35H402.002V151.35H415.877V149.35ZM403.001 150.291C402.887 148.357 402.16 146.757 400.764 145.604L399.49 147.146C400.395 147.893 400.918 148.943 401.004 150.409L403.001 150.291ZM400.784 145.62C399.42 144.434 397.697 143.875 395.702 143.875V145.875C397.307 145.875 398.535 146.316 399.471 147.13L400.784 145.62ZM395.702 143.875C393.962 143.875 392.457 144.357 391.286 145.405L392.619 146.895C393.348 146.243 394.343 145.875 395.702 145.875V143.875ZM391.308 145.385C390.078 146.421 389.527 147.91 389.527 149.675H391.527C391.527 148.34 391.927 147.479 392.596 146.915L391.308 145.385ZM389.527 149.675C389.527 151.766 390.548 153.4 392.417 154.51L393.438 152.79C392.107 152 391.527 150.984 391.527 149.675H389.527ZM392.417 154.51C394.115 155.518 396.701 156.57 400.12 157.676L400.735 155.774C397.354 154.68 394.94 153.682 393.438 152.79L392.417 154.51ZM400.107 157.672C403.484 158.814 406.187 159.898 408.23 160.919L409.125 159.131C406.968 158.052 404.171 156.936 400.748 155.778L400.107 157.672ZM408.239 160.924C410.243 161.903 411.975 163.326 413.437 165.213L415.018 163.987C413.38 161.874 411.412 160.247 409.116 159.126L408.239 160.924ZM413.437 165.213C414.821 166.998 415.552 169.341 415.552 172.325H417.552C417.552 169.009 416.734 166.202 415.018 163.987L413.437 165.213ZM415.552 172.325C415.552 175.143 414.827 177.681 413.382 179.965L415.072 181.035C416.727 178.419 417.552 175.507 417.552 172.325H415.552ZM413.374 179.978C411.984 182.248 409.935 184.078 407.18 185.456L408.075 187.244C411.12 185.722 413.47 183.652 415.08 181.022L413.374 179.978ZM407.18 185.456C404.446 186.823 401.18 187.525 397.352 187.525V189.525C401.424 189.525 405.009 188.777 408.075 187.244L407.18 185.456ZM479.113 135.35H480.113V134.35H479.113V135.35ZM479.113 145.625V146.625H480.113V145.625H479.113ZM457.663 145.625V144.625H456.663V145.625H457.663ZM457.663 156.725H456.663V157.725H457.663V156.725ZM473.713 156.725H474.713V155.725H473.713V156.725ZM473.713 166.7V167.7H474.713V166.7H473.713ZM457.663 166.7V165.7H456.663V166.7H457.663ZM457.663 188V189H458.663V188H457.663ZM444.838 188H443.838V189H444.838V188ZM444.838 135.35V134.35H443.838V135.35H444.838ZM478.113 135.35V145.625H480.113V135.35H478.113ZM479.113 144.625H457.663V146.625H479.113V144.625ZM456.663 145.625V156.725H458.663V145.625H456.663ZM457.663 157.725H473.713V155.725H457.663V157.725ZM472.713 156.725V166.7H474.713V156.725H472.713ZM473.713 165.7H457.663V167.7H473.713V165.7ZM456.663 166.7V188H458.663V166.7H456.663ZM457.663 187H444.838V189H457.663V187ZM445.838 188V135.35H443.838V188H445.838ZM444.838 136.35H479.113V134.35H444.838V136.35ZM499.354 185.075L498.865 185.947L498.869 185.95L499.354 185.075ZM489.529 175.475L488.663 175.976L488.667 175.982L488.671 175.988L489.529 175.475ZM489.529 147.65L488.671 147.137L488.666 147.145L489.529 147.65ZM499.354 138.05L498.869 137.175L498.865 137.178L499.354 138.05ZM526.579 138.05L526.09 138.922L526.094 138.925L526.579 138.05ZM536.329 147.65L535.461 148.147L535.466 148.155L536.329 147.65ZM536.329 175.475L537.192 175.98L537.195 175.976L536.329 175.475ZM526.579 185.075L527.068 185.947L527.068 185.947L526.579 185.075ZM523.054 172.625L522.315 171.952L522.308 171.959L523.054 172.625ZM523.054 150.425L522.308 151.091L522.314 151.098L522.321 151.105L523.054 150.425ZM502.804 150.35L502.071 149.67L502.064 149.677L502.804 150.35ZM502.804 172.7L502.058 173.366L502.064 173.373L502.071 173.38L502.804 172.7ZM513.004 187.525C508.216 187.525 503.834 186.415 499.839 184.2L498.869 185.95C503.174 188.335 507.892 189.525 513.004 189.525V187.525ZM499.843 184.203C495.898 181.99 492.749 178.915 490.388 174.962L488.671 175.988C491.209 180.235 494.61 183.56 498.865 185.947L499.843 184.203ZM490.395 174.974C488.089 170.988 486.929 166.513 486.929 161.525H484.929C484.929 166.837 486.169 171.662 488.663 175.976L490.395 174.974ZM486.929 161.525C486.929 156.537 488.089 152.089 490.392 148.155L488.666 147.145C486.169 151.411 484.929 156.213 484.929 161.525H486.929ZM490.388 148.163C492.749 144.21 495.898 141.135 499.843 138.922L498.865 137.178C494.61 139.565 491.209 142.89 488.671 147.137L490.388 148.163ZM499.839 138.925C503.834 136.71 508.216 135.6 513.004 135.6V133.6C507.892 133.6 503.174 134.79 498.869 137.175L499.839 138.925ZM513.004 135.6C517.792 135.6 522.147 136.71 526.09 138.922L527.068 137.178C522.811 134.79 518.116 133.6 513.004 133.6V135.6ZM526.094 138.925C530.085 141.137 533.203 144.206 535.462 148.147L537.197 147.153C534.756 142.894 531.373 139.563 527.064 137.175L526.094 138.925ZM535.466 148.155C537.769 152.089 538.929 156.537 538.929 161.525H540.929C540.929 156.213 539.689 151.411 537.192 147.145L535.466 148.155ZM538.929 161.525C538.929 166.513 537.769 170.988 535.463 174.974L537.195 175.976C539.689 171.662 540.929 166.837 540.929 161.525H538.929ZM535.466 174.97C533.155 178.918 530.033 181.991 526.09 184.203L527.068 185.947C531.325 183.559 534.703 180.232 537.192 175.98L535.466 174.97ZM526.09 184.203C522.147 186.415 517.792 187.525 513.004 187.525V189.525C518.116 189.525 522.811 188.335 527.068 185.947L526.09 184.203ZM513.004 177.825C517.451 177.825 521.087 176.33 523.8 173.291L522.308 171.959C520.022 174.52 516.957 175.825 513.004 175.825V177.825ZM523.793 173.298C526.545 170.276 527.879 166.318 527.879 161.525H525.879C525.879 165.932 524.663 169.374 522.315 171.952L523.793 173.298ZM527.879 161.525C527.879 156.686 526.548 152.722 523.787 149.745L522.321 151.105C524.661 153.628 525.879 157.064 525.879 161.525H527.879ZM523.8 149.759C521.087 146.72 517.451 145.225 513.004 145.225V147.225C516.957 147.225 520.022 148.53 522.308 151.091L523.8 149.759ZM513.004 145.225C508.517 145.225 504.836 146.688 502.071 149.67L503.537 151.03C505.872 148.512 508.992 147.225 513.004 147.225V145.225ZM502.064 149.677C499.356 152.656 498.054 156.645 498.054 161.525H500.054C500.054 157.005 501.252 153.544 503.544 151.023L502.064 149.677ZM498.054 161.525C498.054 166.36 499.358 170.342 502.058 173.366L503.55 172.034C501.25 169.458 500.054 165.99 500.054 161.525H498.054ZM502.071 173.38C504.836 176.362 508.517 177.825 513.004 177.825V175.825C508.992 175.825 505.872 174.538 503.537 172.02L502.071 173.38ZM560.564 185.075L560.075 185.947L560.079 185.95L560.564 185.075ZM550.739 175.475L549.873 175.976L549.877 175.982L549.881 175.988L550.739 175.475ZM550.739 147.65L549.881 147.137L549.876 147.145L550.739 147.65ZM560.564 138.05L560.079 137.175L560.075 137.178L560.564 138.05ZM587.789 138.05L587.3 138.922L587.304 138.925L587.789 138.05ZM597.539 147.65L596.671 148.147L596.676 148.155L597.539 147.65ZM597.539 175.475L598.402 175.98L598.405 175.976L597.539 175.475ZM587.789 185.075L588.278 185.947L588.278 185.947L587.789 185.075ZM584.264 172.625L583.525 171.952L583.518 171.959L584.264 172.625ZM584.264 150.425L583.518 151.091L583.524 151.098L583.531 151.105L584.264 150.425ZM564.014 150.35L563.281 149.67L563.274 149.677L564.014 150.35ZM564.014 172.7L563.268 173.366L563.274 173.373L563.281 173.38L564.014 172.7ZM574.214 187.525C569.426 187.525 565.044 186.415 561.049 184.2L560.079 185.95C564.384 188.335 569.102 189.525 574.214 189.525V187.525ZM561.053 184.203C557.108 181.99 553.959 178.915 551.597 174.962L549.881 175.988C552.419 180.235 555.82 183.56 560.075 185.947L561.053 184.203ZM551.605 174.974C549.299 170.988 548.139 166.513 548.139 161.525H546.139C546.139 166.837 547.379 171.662 549.873 175.976L551.605 174.974ZM548.139 161.525C548.139 156.537 549.299 152.089 551.602 148.155L549.876 147.145C547.379 151.411 546.139 156.213 546.139 161.525H548.139ZM551.597 148.163C553.959 144.21 557.108 141.135 561.053 138.922L560.075 137.178C555.82 139.565 552.419 142.89 549.881 147.137L551.597 148.163ZM561.049 138.925C565.044 136.71 569.426 135.6 574.214 135.6V133.6C569.102 133.6 564.384 134.79 560.079 137.175L561.049 138.925ZM574.214 135.6C579.002 135.6 583.357 136.71 587.3 138.922L588.278 137.178C584.021 134.79 579.326 133.6 574.214 133.6V135.6ZM587.304 138.925C591.295 141.137 594.413 144.206 596.671 148.147L598.407 147.153C595.965 142.894 592.583 139.563 588.274 137.175L587.304 138.925ZM596.676 148.155C598.979 152.089 600.139 156.537 600.139 161.525H602.139C602.139 156.213 600.899 151.411 598.402 147.145L596.676 148.155ZM600.139 161.525C600.139 166.513 598.979 170.988 596.673 174.974L598.405 175.976C600.899 171.662 602.139 166.837 602.139 161.525H600.139ZM596.676 174.97C594.365 178.918 591.243 181.991 587.3 184.203L588.278 185.947C592.535 183.559 595.913 180.232 598.402 175.98L596.676 174.97ZM587.3 184.203C583.357 186.415 579.002 187.525 574.214 187.525V189.525C579.326 189.525 584.021 188.335 588.278 185.947L587.3 184.203ZM574.214 177.825C578.661 177.825 582.297 176.33 585.01 173.291L583.518 171.959C581.232 174.52 578.167 175.825 574.214 175.825V177.825ZM585.003 173.298C587.755 170.276 589.089 166.318 589.089 161.525H587.089C587.089 165.932 585.873 169.374 583.525 171.952L585.003 173.298ZM589.089 161.525C589.089 156.686 587.757 152.722 584.997 149.745L583.531 151.105C585.871 153.628 587.089 157.064 587.089 161.525H589.089ZM585.01 149.759C582.297 146.72 578.661 145.225 574.214 145.225V147.225C578.167 147.225 581.232 148.53 583.518 151.091L585.01 149.759ZM574.214 145.225C569.727 145.225 566.046 146.688 563.281 149.67L564.747 151.03C567.082 148.512 570.201 147.225 574.214 147.225V145.225ZM563.274 149.677C560.566 152.656 559.264 156.645 559.264 161.525H561.264C561.264 157.005 562.462 153.544 564.754 151.023L563.274 149.677ZM559.264 161.525C559.264 166.36 560.568 170.342 563.268 173.366L564.76 172.034C562.46 169.458 561.264 165.99 561.264 161.525H559.264ZM563.281 173.38C566.046 176.362 569.727 177.825 574.214 177.825V175.825C570.201 175.825 567.082 174.538 564.747 172.02L563.281 173.38ZM644.799 138.65L645.267 137.766L645.267 137.766L644.799 138.65ZM654.399 147.95L653.527 148.44L653.531 148.447L653.535 148.453L654.399 147.95ZM654.399 175.4L653.532 174.902L653.527 174.91L654.399 175.4ZM644.724 184.7L644.26 183.814L644.256 183.816L644.724 184.7ZM610.524 188H609.524V189H610.524V188ZM610.524 135.35V134.35H609.524V135.35H610.524ZM623.349 146.3V145.3H622.349V146.3H623.349ZM623.349 176.9H622.349V177.9H623.349V176.9ZM630.249 136.35C635.665 136.35 640.349 137.423 644.331 139.534L645.267 137.766C640.949 135.477 635.933 134.35 630.249 134.35V136.35ZM644.331 139.534C648.316 141.646 651.374 144.611 653.527 148.44L655.271 147.46C652.924 143.289 649.583 140.054 645.267 137.766L644.331 139.534ZM653.535 148.453C655.734 152.23 656.849 156.627 656.849 161.675H658.849C658.849 156.323 657.664 151.57 655.263 147.447L653.535 148.453ZM656.849 161.675C656.849 166.671 655.735 171.07 653.532 174.902L655.266 175.898C657.663 171.73 658.849 166.979 658.849 161.675H656.849ZM653.527 174.91C651.375 178.735 648.295 181.701 644.26 183.814L645.188 185.586C649.553 183.299 652.923 180.065 655.271 175.89L653.527 174.91ZM644.256 183.816C640.273 185.928 635.614 187 630.249 187V189C635.884 189 640.875 187.872 645.192 185.584L644.256 183.816ZM630.249 187H610.524V189H630.249V187ZM611.524 188V135.35H609.524V188H611.524ZM610.524 136.35H630.249V134.35H610.524V136.35ZM629.424 177.9C634.459 177.9 638.514 176.52 641.449 173.639L640.049 172.211C637.584 174.63 634.089 175.9 629.424 175.9V177.9ZM641.449 173.639C644.391 170.751 645.799 166.714 645.799 161.675H643.799C643.799 166.336 642.507 169.799 640.049 172.211L641.449 173.639ZM645.799 161.675C645.799 156.635 644.391 152.578 641.456 149.643L640.042 151.057C642.507 153.522 643.799 157.015 643.799 161.675H645.799ZM641.456 149.643C638.521 146.708 634.464 145.3 629.424 145.3V147.3C634.084 147.3 637.577 148.592 640.042 151.057L641.456 149.643ZM629.424 145.3H623.349V147.3H629.424V145.3ZM622.349 146.3V176.9H624.349V146.3H622.349ZM623.349 177.9H629.424V175.9H623.349V177.9Z" fill="url(#paint1_linear_1120_804)"/>
<path d="M53.7486 262.718C53.7486 261.494 54.0246 260.396 54.5766 259.424C55.1286 258.44 55.8786 257.672 56.8266 257.12C57.7866 256.568 58.8486 256.292 60.0126 256.292C61.3806 256.292 62.5746 256.622 63.5946 257.282C64.6146 257.942 65.3586 258.878 65.8266 260.09H63.8646C63.5166 259.334 63.0126 258.752 62.3526 258.344C61.7046 257.936 60.9246 257.732 60.0126 257.732C59.1366 257.732 58.3506 257.936 57.6546 258.344C56.9586 258.752 56.4126 259.334 56.0166 260.09C55.6206 260.834 55.4226 261.71 55.4226 262.718C55.4226 263.714 55.6206 264.59 56.0166 265.346C56.4126 266.09 56.9586 266.666 57.6546 267.074C58.3506 267.482 59.1366 267.686 60.0126 267.686C60.9246 267.686 61.7046 267.488 62.3526 267.092C63.0126 266.684 63.5166 266.102 63.8646 265.346H65.8266C65.3586 266.546 64.6146 267.476 63.5946 268.136C62.5746 268.784 61.3806 269.108 60.0126 269.108C58.8486 269.108 57.7866 268.838 56.8266 268.298C55.8786 267.746 55.1286 266.984 54.5766 266.012C54.0246 265.04 53.7486 263.942 53.7486 262.718ZM73.9529 269.126C72.7889 269.126 71.7269 268.856 70.7669 268.316C69.8069 267.764 69.0449 267.002 68.4809 266.03C67.9289 265.046 67.6529 263.942 67.6529 262.718C67.6529 261.494 67.9289 260.396 68.4809 259.424C69.0449 258.44 69.8069 257.678 70.7669 257.138C71.7269 256.586 72.7889 256.31 73.9529 256.31C75.1289 256.31 76.1969 256.586 77.1569 257.138C78.1169 257.678 78.8729 258.434 79.4249 259.406C79.9769 260.378 80.2529 261.482 80.2529 262.718C80.2529 263.954 79.9769 265.058 79.4249 266.03C78.8729 267.002 78.1169 267.764 77.1569 268.316C76.1969 268.856 75.1289 269.126 73.9529 269.126ZM73.9529 267.704C74.8289 267.704 75.6149 267.5 76.3109 267.092C77.0189 266.684 77.5709 266.102 77.9669 265.346C78.3749 264.59 78.5789 263.714 78.5789 262.718C78.5789 261.71 78.3749 260.834 77.9669 260.09C77.5709 259.334 77.0249 258.752 76.3289 258.344C75.6329 257.936 74.8409 257.732 73.9529 257.732C73.0649 257.732 72.2729 257.936 71.5769 258.344C70.8809 258.752 70.3289 259.334 69.9209 260.09C69.5249 260.834 69.3269 261.71 69.3269 262.718C69.3269 263.714 69.5249 264.59 69.9209 265.346C70.3289 266.102 70.8809 266.684 71.5769 267.092C72.2849 267.5 73.0769 267.704 73.9529 267.704ZM95.1413 256.544V269H93.5033V259.712L89.3633 269H88.2113L84.0533 259.694V269H82.4153V256.544H84.1793L88.7873 266.84L93.3953 256.544H95.1413ZM99.5572 257.786V261.98H104.129V263.33H99.5572V267.65H104.669V269H97.9192V256.436H104.669V257.786H99.5572ZM127.715 256.454L124.079 269H122.243L119.327 258.902L116.303 269L114.485 269.018L110.975 256.454H112.721L115.457 267.092L118.481 256.454H120.317L123.197 267.056L125.951 256.454H127.715ZM131.145 256.454V269H129.507V256.454H131.145ZM141.659 256.454V257.786H138.239V269H136.601V257.786H133.163V256.454H141.659ZM153.341 256.454V269H151.703V263.312H145.313V269H143.675V256.454H145.313V261.962H151.703V256.454H153.341ZM168.029 256.454V257.786H162.575V262.016H167.003V263.348H162.575V269H160.937V256.454H168.029ZM177.423 266.21H171.951L170.943 269H169.215L173.751 256.526H175.641L180.159 269H178.431L177.423 266.21ZM176.955 264.878L174.687 258.542L172.419 264.878H176.955ZM194.862 256.544V269H193.224V259.712L189.084 269H187.932L183.774 259.694V269H182.136V256.544H183.9L188.508 266.84L193.116 256.544H194.862ZM199.278 256.454V269H197.64V256.454H199.278ZM203.708 267.668H208.1V269H202.07V256.454H203.708V267.668ZM218.623 256.454L214.537 264.266V269H212.899V264.266L208.795 256.454H210.613L213.709 262.808L216.805 256.454H218.623ZM232.566 266.21H227.094L226.086 269H224.358L228.894 256.526H230.784L235.302 269H233.574L232.566 266.21ZM232.098 264.878L229.83 258.542L227.562 264.878H232.098ZM247.143 269H245.505L238.917 259.01V269H237.279V256.436H238.917L245.505 266.408V256.436H247.143V269ZM253.841 256.454C255.209 256.454 256.391 256.712 257.387 257.228C258.395 257.732 259.163 258.458 259.691 259.406C260.231 260.354 260.501 261.47 260.501 262.754C260.501 264.038 260.231 265.154 259.691 266.102C259.163 267.038 258.395 267.758 257.387 268.262C256.391 268.754 255.209 269 253.841 269H249.935V256.454H253.841ZM253.841 267.65C255.461 267.65 256.697 267.224 257.549 266.372C258.401 265.508 258.827 264.302 258.827 262.754C258.827 261.194 258.395 259.976 257.531 259.1C256.679 258.224 255.449 257.786 253.841 257.786H251.573V267.65H253.841ZM274.552 256.454V257.786H269.098V262.016H273.526V263.348H269.098V269H267.46V256.454H274.552ZM278.169 257.786V261.98H282.741V263.33H278.169V267.65H283.281V269H276.531V256.436H283.281V257.786H278.169ZM287.397 257.786V261.98H291.969V263.33H287.397V267.65H292.509V269H285.759V256.436H292.509V257.786H287.397ZM296.626 267.668H301.018V269H294.988V256.454H296.626V267.668ZM315.278 256.454V257.786H311.858V269H310.22V257.786H306.782V256.454H315.278ZM326.96 256.454V269H325.322V263.312H318.932V269H317.294V256.454H318.932V261.962H325.322V256.454H326.96ZM331.395 257.786V261.98H335.967V263.33H331.395V267.65H336.507V269H329.757V256.436H336.507V257.786H331.395ZM350.102 256.454V265.724C350.102 266.756 349.784 267.584 349.148 268.208C348.512 268.82 347.672 269.126 346.628 269.126C345.572 269.126 344.726 268.814 344.09 268.19C343.454 267.554 343.136 266.69 343.136 265.598H344.774C344.786 266.21 344.942 266.708 345.242 267.092C345.554 267.476 346.016 267.668 346.628 267.668C347.24 267.668 347.696 267.488 347.996 267.128C348.296 266.756 348.446 266.288 348.446 265.724V256.454H350.102ZM359.017 269.126C357.853 269.126 356.791 268.856 355.831 268.316C354.871 267.764 354.109 267.002 353.545 266.03C352.993 265.046 352.717 263.942 352.717 262.718C352.717 261.494 352.993 260.396 353.545 259.424C354.109 258.44 354.871 257.678 355.831 257.138C356.791 256.586 357.853 256.31 359.017 256.31C360.193 256.31 361.261 256.586 362.221 257.138C363.181 257.678 363.937 258.434 364.489 259.406C365.041 260.378 365.317 261.482 365.317 262.718C365.317 263.954 365.041 265.058 364.489 266.03C363.937 267.002 363.181 267.764 362.221 268.316C361.261 268.856 360.193 269.126 359.017 269.126ZM359.017 267.704C359.893 267.704 360.679 267.5 361.375 267.092C362.083 266.684 362.635 266.102 363.031 265.346C363.439 264.59 363.643 263.714 363.643 262.718C363.643 261.71 363.439 260.834 363.031 260.09C362.635 259.334 362.089 258.752 361.393 258.344C360.697 257.936 359.905 257.732 359.017 257.732C358.129 257.732 357.337 257.936 356.641 258.344C355.945 258.752 355.393 259.334 354.985 260.09C354.589 260.834 354.391 261.71 354.391 262.718C354.391 263.714 354.589 264.59 354.985 265.346C355.393 266.102 355.945 266.684 356.641 267.092C357.349 267.5 358.141 267.704 359.017 267.704ZM376.264 256.454L372.178 264.266V269H370.54V264.266L366.436 256.454H368.254L371.35 262.808L374.446 256.454H376.264ZM388.478 269.126C387.314 269.126 386.252 268.856 385.292 268.316C384.332 267.764 383.57 267.002 383.006 266.03C382.454 265.046 382.178 263.942 382.178 262.718C382.178 261.494 382.454 260.396 383.006 259.424C383.57 258.44 384.332 257.678 385.292 257.138C386.252 256.586 387.314 256.31 388.478 256.31C389.654 256.31 390.722 256.586 391.682 257.138C392.642 257.678 393.398 258.434 393.95 259.406C394.502 260.378 394.778 261.482 394.778 262.718C394.778 263.954 394.502 265.058 393.95 266.03C393.398 267.002 392.642 267.764 391.682 268.316C390.722 268.856 389.654 269.126 388.478 269.126ZM388.478 267.704C389.354 267.704 390.14 267.5 390.836 267.092C391.544 266.684 392.096 266.102 392.492 265.346C392.9 264.59 393.104 263.714 393.104 262.718C393.104 261.71 392.9 260.834 392.492 260.09C392.096 259.334 391.55 258.752 390.854 258.344C390.158 257.936 389.366 257.732 388.478 257.732C387.59 257.732 386.798 257.936 386.102 258.344C385.406 258.752 384.854 259.334 384.446 260.09C384.05 260.834 383.852 261.71 383.852 262.718C383.852 263.714 384.05 264.59 384.446 265.346C384.854 266.102 385.406 266.684 386.102 267.092C386.81 267.5 387.602 267.704 388.478 267.704ZM404.033 256.454V257.786H398.579V262.016H403.007V263.348H398.579V269H396.941V256.454H404.033ZM423.536 256.544V269H421.898V259.712L417.758 269H416.606L412.448 259.694V269H410.81V256.544H412.574L417.182 266.84L421.79 256.544H423.536ZM432.002 269.126C430.838 269.126 429.776 268.856 428.816 268.316C427.856 267.764 427.094 267.002 426.53 266.03C425.978 265.046 425.702 263.942 425.702 262.718C425.702 261.494 425.978 260.396 426.53 259.424C427.094 258.44 427.856 257.678 428.816 257.138C429.776 256.586 430.838 256.31 432.002 256.31C433.178 256.31 434.246 256.586 435.206 257.138C436.166 257.678 436.922 258.434 437.474 259.406C438.026 260.378 438.302 261.482 438.302 262.718C438.302 263.954 438.026 265.058 437.474 266.03C436.922 267.002 436.166 267.764 435.206 268.316C434.246 268.856 433.178 269.126 432.002 269.126ZM432.002 267.704C432.878 267.704 433.664 267.5 434.36 267.092C435.068 266.684 435.62 266.102 436.016 265.346C436.424 264.59 436.628 263.714 436.628 262.718C436.628 261.71 436.424 260.834 436.016 260.09C435.62 259.334 435.074 258.752 434.378 258.344C433.682 257.936 432.89 257.732 432.002 257.732C431.114 257.732 430.322 257.936 429.626 258.344C428.93 258.752 428.378 259.334 427.97 260.09C427.574 260.834 427.376 261.71 427.376 262.718C427.376 263.714 427.574 264.59 427.97 265.346C428.378 266.102 428.93 266.684 429.626 267.092C430.334 267.5 431.126 267.704 432.002 267.704ZM442.066 256.454V264.392C442.066 265.508 442.336 266.336 442.876 266.876C443.428 267.416 444.19 267.686 445.162 267.686C446.122 267.686 446.872 267.416 447.412 266.876C447.964 266.336 448.24 265.508 448.24 264.392V256.454H449.878V264.374C449.878 265.418 449.668 266.3 449.248 267.02C448.828 267.728 448.258 268.256 447.538 268.604C446.83 268.952 446.032 269.126 445.144 269.126C444.256 269.126 443.452 268.952 442.732 268.604C442.024 268.256 441.46 267.728 441.04 267.02C440.632 266.3 440.428 265.418 440.428 264.374V256.454H442.066ZM460.333 256.454V257.786H456.913V269H455.275V257.786H451.837V256.454H460.333ZM472.015 256.454V269H470.377V263.312H463.987V269H462.349V256.454H463.987V261.962H470.377V256.454H472.015ZM490.58 256.454L486.944 269H485.108L482.192 258.902L479.168 269L477.35 269.018L473.84 256.454H475.586L478.322 267.092L481.346 256.454H483.182L486.062 267.056L488.816 256.454H490.58ZM499.788 266.21H494.316L493.308 269H491.58L496.116 256.526H498.006L502.524 269H500.796L499.788 266.21ZM499.32 264.878L497.052 258.542L494.784 264.878H499.32ZM512.223 256.454V257.786H508.803V269H507.165V257.786H503.727V256.454H512.223ZM515.878 257.786V261.98H520.45V263.33H515.878V267.65H520.99V269H514.24V256.436H520.99V257.786H515.878ZM530.074 269L527.086 263.87H525.106V269H523.468V256.454H527.518C528.466 256.454 529.264 256.616 529.912 256.94C530.572 257.264 531.064 257.702 531.388 258.254C531.712 258.806 531.874 259.436 531.874 260.144C531.874 261.008 531.622 261.77 531.118 262.43C530.626 263.09 529.882 263.528 528.886 263.744L532.036 269H530.074ZM525.106 262.556H527.518C528.406 262.556 529.072 262.34 529.516 261.908C529.96 261.464 530.182 260.876 530.182 260.144C530.182 259.4 529.96 258.824 529.516 258.416C529.084 258.008 528.418 257.804 527.518 257.804H525.106V262.556ZM536.057 256.454V269H534.419V256.454H536.057ZM548.713 269H547.075L540.487 259.01V269H538.849V256.436H540.487L547.075 266.408V256.436H548.713V269ZM561.009 260.09C560.661 259.358 560.157 258.794 559.497 258.398C558.837 257.99 558.069 257.786 557.193 257.786C556.317 257.786 555.525 257.99 554.817 258.398C554.121 258.794 553.569 259.37 553.161 260.126C552.765 260.87 552.567 261.734 552.567 262.718C552.567 263.702 552.765 264.566 553.161 265.31C553.569 266.054 554.121 266.63 554.817 267.038C555.525 267.434 556.317 267.632 557.193 267.632C558.417 267.632 559.425 267.266 560.217 266.534C561.009 265.802 561.471 264.812 561.603 263.564H556.599V262.232H563.349V263.492C563.253 264.524 562.929 265.472 562.377 266.336C561.825 267.188 561.099 267.866 560.199 268.37C559.299 268.862 558.297 269.108 557.193 269.108C556.029 269.108 554.967 268.838 554.007 268.298C553.047 267.746 552.285 266.984 551.721 266.012C551.169 265.04 550.893 263.942 550.893 262.718C550.893 261.494 551.169 260.396 551.721 259.424C552.285 258.44 553.047 257.678 554.007 257.138C554.967 256.586 556.029 256.31 557.193 256.31C558.525 256.31 559.701 256.64 560.721 257.3C561.753 257.96 562.503 258.89 562.971 260.09H561.009ZM577.406 256.454V257.786H571.952V262.016H576.38V263.348H571.952V269H570.314V256.454H577.406ZM585.072 269.126C583.908 269.126 582.846 268.856 581.886 268.316C580.926 267.764 580.164 267.002 579.6 266.03C579.048 265.046 578.772 263.942 578.772 262.718C578.772 261.494 579.048 260.396 579.6 259.424C580.164 258.44 580.926 257.678 581.886 257.138C582.846 256.586 583.908 256.31 585.072 256.31C586.248 256.31 587.316 256.586 588.276 257.138C589.236 257.678 589.992 258.434 590.544 259.406C591.096 260.378 591.372 261.482 591.372 262.718C591.372 263.954 591.096 265.058 590.544 266.03C589.992 267.002 589.236 267.764 588.276 268.316C587.316 268.856 586.248 269.126 585.072 269.126ZM585.072 267.704C585.948 267.704 586.734 267.5 587.43 267.092C588.138 266.684 588.69 266.102 589.086 265.346C589.494 264.59 589.698 263.714 589.698 262.718C589.698 261.71 589.494 260.834 589.086 260.09C588.69 259.334 588.144 258.752 587.448 258.344C586.752 257.936 585.96 257.732 585.072 257.732C584.184 257.732 583.392 257.936 582.696 258.344C582 258.752 581.448 259.334 581.04 260.09C580.644 260.834 580.446 261.71 580.446 262.718C580.446 263.714 580.644 264.59 581.04 265.346C581.448 266.102 582 266.684 582.696 267.092C583.404 267.5 584.196 267.704 585.072 267.704ZM599.222 269.126C598.058 269.126 596.996 268.856 596.036 268.316C595.076 267.764 594.314 267.002 593.75 266.03C593.198 265.046 592.922 263.942 592.922 262.718C592.922 261.494 593.198 260.396 593.75 259.424C594.314 258.44 595.076 257.678 596.036 257.138C596.996 256.586 598.058 256.31 599.222 256.31C600.398 256.31 601.466 256.586 602.426 257.138C603.386 257.678 604.142 258.434 604.694 259.406C605.246 260.378 605.522 261.482 605.522 262.718C605.522 263.954 605.246 265.058 604.694 266.03C604.142 267.002 603.386 267.764 602.426 268.316C601.466 268.856 600.398 269.126 599.222 269.126ZM599.222 267.704C600.098 267.704 600.884 267.5 601.58 267.092C602.288 266.684 602.84 266.102 603.236 265.346C603.644 264.59 603.848 263.714 603.848 262.718C603.848 261.71 603.644 260.834 603.236 260.09C602.84 259.334 602.294 258.752 601.598 258.344C600.902 257.936 600.11 257.732 599.222 257.732C598.334 257.732 597.542 257.936 596.846 258.344C596.15 258.752 595.598 259.334 595.19 260.09C594.794 260.834 594.596 261.71 594.596 262.718C594.596 263.714 594.794 264.59 595.19 265.346C595.598 266.102 596.15 266.684 596.846 267.092C597.554 267.5 598.346 267.704 599.222 267.704ZM611.591 256.454C612.959 256.454 614.141 256.712 615.137 257.228C616.145 257.732 616.913 258.458 617.441 259.406C617.981 260.354 618.251 261.47 618.251 262.754C618.251 264.038 617.981 265.154 617.441 266.102C616.913 267.038 616.145 267.758 615.137 268.262C614.141 268.754 612.959 269 611.591 269H607.685V256.454H611.591ZM611.591 267.65C613.211 267.65 614.447 267.224 615.299 266.372C616.151 265.508 616.577 264.302 616.577 262.754C616.577 261.194 616.145 259.976 615.281 259.1C614.429 258.224 613.199 257.786 611.591 257.786H609.323V267.65H611.591Z" fill="url(#paint2_linear_1120_804)"/>
<defs>
<linearGradient id="paint0_linear_1120_804" x1="350.441" y1="1.95223" x2="350.249" y2="113.006" gradientUnits="userSpaceOnUse">
<stop stop-color="#FFE353" stop-opacity="0.94"/>
<stop offset="1" stop-color="#FF9224"/>
</linearGradient>
<linearGradient id="paint1_linear_1120_804" x1="349.946" y1="106.952" x2="349.748" y2="218.006" gradientUnits="userSpaceOnUse">
<stop stop-color="#FFE353" stop-opacity="0.94"/>
<stop offset="1" stop-color="#FF9224"/>
</linearGradient>
<linearGradient id="paint2_linear_1120_804" x1="52.5" y1="249" x2="58.3243" y2="320.537" gradientUnits="userSpaceOnUse">
<stop stop-color="#FFE353" stop-opacity="0.94"/>
<stop offset="1" stop-color="#FF9224"/>
</linearGradient>
</defs>
</svg>
