<svg width="2304" height="189" viewBox="0 0 2304 189" fill="none" xmlns="http://www.w3.org/2000/svg">
<g clip-path="url(#clip0_1430_1732)">
<path d="M0 0H2304V189H0V0Z" fill="#353535" fill-opacity="0.88"/>
<g opacity="0.6">
<path opacity="0.3" d="M1762.08 318.974L1762.07 318.942C1774.83 317.008 1788.63 314.121 1804.06 309.925C1873.19 291.127 1903.4 265.564 1933.55 240.051L1933.56 240.042C1963.63 214.592 1993.64 189.192 2062.46 170.478C2131.28 151.765 2170.02 158.469 2208.84 165.187L2208.86 165.189C2247.77 171.923 2286.77 178.667 2355.9 159.868C2408.94 145.447 2437.81 127.389 2462.56 108.072L2462.57 108.097L2462.61 108.256L2462.66 108.414L2462.7 108.572L2462.74 108.73L2462.78 108.888L2462.83 109.046L2462.87 109.204L2462.91 109.361L2462.96 109.519L2463 109.676L2463.04 109.833L2463.08 109.99L2463.13 110.147L2463.17 110.303L2463.21 110.46L2463.25 110.616L2463.3 110.772L2463.34 110.928L2463.38 111.084L2463.42 111.239L2463.47 111.395L2463.51 111.55L2463.55 111.705L2463.59 111.86L2463.63 112.015L2463.68 112.169L2463.72 112.324L2463.76 112.478L2463.8 112.632L2463.84 112.786L2463.89 112.94L2463.93 113.094L2463.97 113.247L2464.01 113.401L2464.05 113.554L2464.09 113.707L2464.14 113.86L2464.18 114.013L2464.22 114.165L2464.26 114.318L2464.3 114.47L2464.34 114.622L2464.38 114.774L2464.43 114.926L2464.47 115.077L2464.51 115.229L2464.55 115.38L2464.59 115.531L2464.63 115.682L2464.67 115.833L2464.71 115.984L2464.75 116.134L2464.8 116.284L2464.84 116.435L2464.88 116.585L2464.92 116.735L2464.96 116.884L2465 117.034L2465.04 117.183L2465.08 117.332L2465.12 117.481L2465.16 117.63L2465.2 117.779L2465.24 117.928L2465.28 118.076L2465.32 118.224L2465.36 118.372L2465.4 118.52L2465.44 118.668L2465.48 118.816L2465.52 118.963L2465.56 119.111L2465.6 119.258L2465.64 119.405L2465.68 119.552L2465.72 119.698L2465.76 119.845L2465.8 119.991L2465.84 120.137L2465.88 120.283L2465.92 120.429L2465.96 120.575L2466 120.72L2466.04 120.866L2466.08 121.011L2466.12 121.156L2466.16 121.301L2466.2 121.446L2466.24 121.59L2466.28 121.735L2466.32 121.879L2466.36 122.023L2466.4 122.167L2466.43 122.311L2466.47 122.455L2466.51 122.598L2466.55 122.741L2466.59 122.885L2466.63 123.028L2466.67 123.17L2466.71 123.313L2466.75 123.456L2466.78 123.598L2466.82 123.74L2466.86 123.882L2466.9 124.024L2466.94 124.166L2466.98 124.307L2467.02 124.449L2467.05 124.59L2467.09 124.731L2467.13 124.872L2467.17 125.013L2467.21 125.153L2467.25 125.294L2467.28 125.434L2467.32 125.574L2467.36 125.714L2467.4 125.854L2467.44 125.994L2467.47 126.133L2467.51 126.273L2467.55 126.412L2467.59 126.551L2467.63 126.69L2467.66 126.828L2467.7 126.967L2467.74 127.105L2467.78 127.243L2467.81 127.381L2467.85 127.519L2467.89 127.657L2467.93 127.795L2467.96 127.932L2468 128.069L2468.04 128.206L2468.07 128.343L2468.11 128.48L2468.15 128.617L2468.19 128.753L2468.22 128.89L2468.26 129.026L2468.3 129.162L2468.33 129.298L2468.37 129.433L2468.41 129.569L2468.44 129.704L2468.48 129.839L2468.52 129.974L2468.55 130.109L2468.59 130.244L2468.63 130.378L2468.66 130.513L2468.7 130.647L2468.74 130.781L2468.77 130.915L2468.81 131.049L2468.85 131.182L2468.88 131.316L2468.92 131.449L2468.96 131.582L2468.99 131.715L2469.03 131.848L2469.06 131.981L2469.1 132.113L2469.14 132.245L2469.17 132.377L2469.21 132.509L2469.24 132.641L2469.28 132.773L2469.32 132.905L2469.35 133.036L2469.39 133.167L2469.42 133.298L2469.46 133.429L2469.49 133.56L2469.53 133.69L2469.56 133.821L2469.6 133.951L2469.63 134.081L2469.67 134.211L2469.71 134.341L2469.74 134.47L2469.78 134.6L2469.81 134.729L2469.85 134.858L2469.88 134.987L2469.92 135.116L2469.95 135.245L2469.99 135.373L2470.02 135.501L2470.06 135.63L2470.09 135.758L2470.13 135.885L2470.16 136.013L2470.19 136.141L2470.23 136.268L2470.26 136.395L2470.3 136.522L2470.33 136.649L2470.37 136.776L2470.4 136.903L2470.44 137.029L2470.47 137.155L2470.51 137.281L2470.54 137.407L2470.57 137.533L2470.61 137.659L2470.64 137.784L2470.68 137.909L2470.71 138.035L2470.74 138.159L2470.78 138.284L2470.81 138.409L2470.85 138.533L2470.88 138.658L2470.91 138.782L2470.95 138.906L2470.98 139.03L2471.01 139.154L2471.05 139.277L2471.08 139.401L2471.11 139.524L2471.15 139.647L2471.18 139.77L2471.22 139.892L2471.25 140.015L2471.28 140.137L2471.32 140.26L2471.35 140.382L2471.38 140.504L2471.41 140.626L2471.45 140.747L2471.48 140.869L2471.51 140.99L2471.55 141.111L2471.58 141.232L2471.61 141.353L2471.65 141.474L2471.68 141.594L2471.71 141.715L2471.74 141.835L2471.78 141.955L2471.81 142.075L2471.84 142.194L2471.87 142.314L2471.91 142.433L2471.94 142.553L2471.97 142.672L2472 142.791L2472.04 142.909L2472.07 143.028L2472.1 143.146L2472.13 143.265L2472.16 143.383L2472.2 143.501L2472.23 143.619L2472.26 143.736L2472.29 143.854L2472.32 143.971L2472.36 144.088L2472.39 144.205L2472.42 144.322L2472.45 144.439L2472.48 144.555L2472.51 144.672L2472.55 144.788L2472.58 144.904L2472.61 145.02L2472.64 145.135L2472.67 145.251L2472.7 145.366L2472.74 145.482L2472.77 145.597L2472.8 145.712L2472.83 145.827L2472.86 145.941L2472.89 146.056L2472.92 146.17L2472.95 146.284L2472.98 146.398L2473.02 146.512L2473.05 146.625L2473.08 146.739L2473.11 146.852L2473.14 146.965L2473.17 147.078L2473.2 147.191L2473.23 147.304L2473.26 147.417L2473.29 147.529L2473.32 147.641L2473.35 147.753L2473.38 147.865L2473.41 147.977L2473.44 148.089L2473.47 148.2L2473.5 148.311L2473.53 148.422L2473.56 148.533L2473.59 148.644L2473.62 148.755L2473.66 148.865L2473.69 148.975L2473.71 149.086L2473.74 149.196L2473.77 149.305L2473.8 149.415L2473.83 149.525L2473.86 149.634L2473.89 149.743L2473.92 149.852L2473.95 149.961L2473.98 150.07L2474.01 150.178L2474.04 150.287L2474.07 150.395L2474.1 150.503L2474.13 150.611L2474.16 150.719L2474.19 150.826L2474.22 150.934L2474.25 151.041L2474.28 151.148L2474.3 151.255L2474.33 151.362L2474.36 151.469L2474.39 151.575L2474.42 151.681L2474.45 151.787L2474.48 151.893L2474.51 151.999L2474.54 152.105L2474.56 152.211L2474.59 152.316L2474.62 152.421L2474.65 152.526L2474.68 152.631L2474.71 152.736L2474.74 152.84L2474.76 152.945L2474.79 153.049L2474.82 153.153L2474.85 153.257L2474.88 153.361L2474.91 153.464L2474.93 153.568L2474.96 153.671L2474.99 153.774L2475.02 153.877L2475.05 153.98L2475.07 154.083L2475.1 154.185L2475.13 154.288L2475.16 154.39L2475.19 154.492L2475.21 154.594L2475.24 154.695L2475.27 154.797L2475.3 154.898L2475.32 154.999L2475.35 155.1L2475.38 155.201L2475.41 155.302L2475.43 155.403L2475.46 155.503L2475.49 155.603L2475.51 155.703L2475.54 155.803L2475.57 155.903L2475.6 156.003L2475.62 156.102L2475.65 156.202L2475.68 156.301L2475.7 156.4L2475.73 156.499L2475.76 156.597L2475.78 156.696L2475.81 156.794L2475.84 156.892L2475.86 156.99L2475.89 157.088L2475.92 157.186L2475.94 157.283L2475.97 157.381L2476 157.478L2476.02 157.575L2476.05 157.672L2476.08 157.769L2476.1 157.865L2476.13 157.962L2476.15 158.058L2476.18 158.154L2476.21 158.25L2476.23 158.346L2476.26 158.442L2476.29 158.537L2476.31 158.632L2476.34 158.728L2476.36 158.823L2476.39 158.917L2476.41 159.012L2476.44 159.107L2476.47 159.201L2476.49 159.295L2476.52 159.389L2476.54 159.483L2476.57 159.577L2476.59 159.67L2476.62 159.764L2476.64 159.857L2476.67 159.95L2476.69 160.043L2476.72 160.136L2476.74 160.228L2476.77 160.321L2476.8 160.413L2476.82 160.505L2476.85 160.597L2476.87 160.689L2476.9 160.781L2476.92 160.872L2476.94 160.964L2476.97 161.055L2476.99 161.146L2477.02 161.237L2477.04 161.327L2477.07 161.418L2477.09 161.508L2477.12 161.598L2477.14 161.688L2477.17 161.778L2477.19 161.868L2477.22 161.958L2477.24 162.047L2477.26 162.136L2477.29 162.225L2477.31 162.314L2477.34 162.403L2477.36 162.492L2477.38 162.58L2477.41 162.669L2477.43 162.757L2477.46 162.845L2477.48 162.932L2477.5 163.02L2477.53 163.108L2477.55 163.195L2477.58 163.282L2477.6 163.369L2477.62 163.456L2477.65 163.543L2477.67 163.629L2477.69 163.716L2477.72 163.802L2477.74 163.888L2477.76 163.974L2477.79 164.06L2477.81 164.145L2477.83 164.231L2477.86 164.316L2477.88 164.401L2477.9 164.486L2477.93 164.571L2477.95 164.655L2477.97 164.74L2477.99 164.824L2478.02 164.908L2478.04 164.992L2478.06 165.076L2478.09 165.16L2478.11 165.243L2478.13 165.327L2478.15 165.41L2478.18 165.493L2478.2 165.576L2478.22 165.659L2478.24 165.741L2478.27 165.824L2478.29 165.906L2478.31 165.988L2478.33 166.07L2478.36 166.152L2478.38 166.233L2478.4 166.315L2478.42 166.396L2478.44 166.477L2478.47 166.558L2478.49 166.639L2478.51 166.719L2478.53 166.8L2478.55 166.88L2478.58 166.96L2478.6 167.04L2478.62 167.12L2478.64 167.186L1772.98 359.068L1772.97 359.009L1772.95 358.931L1772.93 358.853L1772.9 358.774L1772.88 358.696L1772.86 358.618L1772.84 358.539L1772.82 358.461L1772.8 358.383L1772.78 358.304L1772.75 358.226L1772.73 358.147L1772.71 358.069L1772.69 357.991L1772.67 357.912L1772.65 357.834L1772.63 357.755L1772.61 357.677L1772.58 357.598L1772.56 357.52L1772.54 357.441L1772.52 357.362L1772.5 357.284L1772.48 357.205L1772.46 357.127L1772.43 357.048L1772.41 356.969L1772.39 356.891L1772.37 356.812L1772.35 356.734L1772.33 356.655L1772.31 356.576L1772.28 356.497L1772.26 356.419L1772.24 356.34L1772.22 356.261L1772.2 356.183L1772.18 356.104L1772.16 356.025L1772.13 355.946L1772.11 355.867L1772.09 355.789L1772.07 355.71L1772.05 355.631L1772.03 355.552L1772.01 355.473L1771.98 355.394L1771.96 355.316L1771.94 355.237L1771.92 355.158L1771.9 355.079L1771.88 355L1771.86 354.921L1771.83 354.842L1771.81 354.763L1771.79 354.684L1771.77 354.605L1771.75 354.526L1771.73 354.447L1771.71 354.368L1771.68 354.289L1771.66 354.21L1771.64 354.131L1771.62 354.052L1771.6 353.973L1771.58 353.894L1771.56 353.814L1771.53 353.735L1771.51 353.656L1771.49 353.577L1771.47 353.498L1771.45 353.419L1771.43 353.34L1771.4 353.26L1771.38 353.181L1771.36 353.102L1771.34 353.023L1771.32 352.943L1771.3 352.864L1771.28 352.785L1771.25 352.706L1771.23 352.626L1771.21 352.547L1771.19 352.468L1771.17 352.388L1771.15 352.309L1771.12 352.23L1771.1 352.15L1771.08 352.071L1771.06 351.991L1771.04 351.912L1771.02 351.832L1770.99 351.753L1770.97 351.674L1770.95 351.594L1770.93 351.515L1770.91 351.435L1770.89 351.356L1770.87 351.276L1770.84 351.197L1770.82 351.117L1770.8 351.037L1770.78 350.958L1770.76 350.878L1770.74 350.799L1770.71 350.719L1770.69 350.64L1770.67 350.56L1770.65 350.48L1770.63 350.401L1770.61 350.321L1770.58 350.241L1770.56 350.162L1770.54 350.082L1770.52 350.002L1770.5 349.922L1770.48 349.843L1770.45 349.763L1770.43 349.683L1770.41 349.603L1770.39 349.524L1770.37 349.444L1770.35 349.364L1770.32 349.284L1770.3 349.204L1770.28 349.124L1770.26 349.045L1770.24 348.965L1770.21 348.885L1770.19 348.805L1770.17 348.725L1770.15 348.645L1770.13 348.565L1770.11 348.485L1770.08 348.405L1770.06 348.325L1770.04 348.245L1770.02 348.165L1770 348.085L1769.98 348.005L1769.95 347.925L1769.93 347.845L1769.91 347.765L1769.89 347.685L1769.87 347.605L1769.84 347.525L1769.82 347.445L1769.8 347.364L1769.78 347.284L1769.76 347.204L1769.74 347.124L1769.71 347.044L1769.69 346.964L1769.67 346.883L1769.65 346.803L1769.63 346.723L1769.61 346.643L1769.58 346.562L1769.56 346.482L1769.54 346.402L1769.52 346.322L1769.5 346.241L1769.47 346.161L1769.45 346.081L1769.43 346L1769.41 345.92L1769.39 345.84L1769.36 345.759L1769.34 345.679L1769.32 345.598L1769.3 345.518L1769.28 345.438L1769.26 345.357L1769.23 345.277L1769.21 345.196L1769.19 345.116L1769.17 345.035L1769.15 344.955L1769.12 344.874L1769.1 344.794L1769.08 344.713L1769.06 344.633L1769.04 344.552L1769.01 344.471L1768.99 344.391L1768.97 344.31L1768.95 344.23L1768.93 344.149L1768.91 344.068L1768.88 343.988L1768.86 343.907L1768.84 343.826L1768.82 343.746L1768.8 343.665L1768.77 343.584L1768.75 343.504L1768.73 343.423L1768.71 343.342L1768.69 343.261L1768.66 343.18L1768.64 343.1L1768.62 343.019L1768.6 342.938L1768.58 342.857L1768.55 342.776L1768.53 342.696L1768.51 342.615L1768.49 342.534L1768.47 342.453L1768.44 342.372L1768.42 342.291L1768.4 342.21L1768.38 342.129L1768.36 342.048L1768.33 341.967L1768.31 341.886L1768.29 341.805L1768.27 341.724L1768.25 341.643L1768.22 341.562L1768.2 341.481L1768.18 341.4L1768.16 341.319L1768.14 341.238L1768.11 341.157L1768.09 341.076L1768.07 340.995L1768.05 340.914L1768.03 340.832L1768 340.751L1767.98 340.67L1767.96 340.589L1767.94 340.508L1767.91 340.427L1767.89 340.345L1767.87 340.264L1767.85 340.183L1767.83 340.102L1767.8 340.02L1767.78 339.939L1767.76 339.858L1767.74 339.776L1767.72 339.695L1767.69 339.614L1767.67 339.532L1767.65 339.451L1767.63 339.37L1767.61 339.288L1767.58 339.207L1767.56 339.126L1767.54 339.044L1767.52 338.963L1767.49 338.881L1767.47 338.8L1767.45 338.718L1767.43 338.637L1767.41 338.555L1767.38 338.474L1767.36 338.392L1767.34 338.311L1767.32 338.229L1767.3 338.148L1767.27 338.066L1767.25 337.985L1767.23 337.903L1767.21 337.821L1767.18 337.74L1767.16 337.658L1767.14 337.577L1767.12 337.495L1767.1 337.413L1767.07 337.332L1767.05 337.25L1767.03 337.168L1767.01 337.086L1766.98 337.005L1766.96 336.923L1766.94 336.841L1766.92 336.759L1766.9 336.678L1766.87 336.596L1766.85 336.514L1766.83 336.432L1766.81 336.35L1766.78 336.269L1766.76 336.187L1766.74 336.105L1766.72 336.023L1766.7 335.941L1766.67 335.859L1766.65 335.777L1766.63 335.695L1766.61 335.613L1766.58 335.531L1766.56 335.449L1766.54 335.368L1766.52 335.286L1766.49 335.204L1766.47 335.122L1766.45 335.039L1766.43 334.957L1766.41 334.875L1766.38 334.793L1766.36 334.711L1766.34 334.629L1766.32 334.547L1766.29 334.465L1766.27 334.383L1766.25 334.301L1766.23 334.219L1766.2 334.136L1766.18 334.054L1766.16 333.972L1766.14 333.89L1766.11 333.808L1766.09 333.725L1766.07 333.643L1766.05 333.561L1766.03 333.479L1766 333.396L1765.98 333.314L1765.96 333.232L1765.94 333.149L1765.91 333.067L1765.89 332.985L1765.87 332.902L1765.85 332.82L1765.82 332.738L1765.8 332.655L1765.78 332.573L1765.76 332.49L1765.73 332.408L1765.71 332.326L1765.69 332.243L1765.67 332.161L1765.64 332.078L1765.62 331.996L1765.6 331.913L1765.58 331.831L1765.55 331.748L1765.53 331.666L1765.51 331.583L1765.49 331.5L1765.47 331.418L1765.44 331.335L1765.42 331.253L1765.4 331.17L1765.38 331.087L1765.35 331.005L1765.33 330.922L1765.31 330.839L1765.29 330.757L1765.26 330.674L1765.24 330.591L1765.22 330.509L1765.2 330.426L1765.17 330.343L1765.15 330.26L1765.13 330.178L1765.11 330.095L1765.08 330.012L1765.06 329.929L1765.04 329.846L1765.02 329.764L1764.99 329.681L1764.97 329.598L1764.95 329.515L1764.93 329.432L1764.9 329.349L1764.88 329.266L1764.86 329.184L1764.84 329.101L1764.81 329.018L1764.79 328.935L1764.77 328.852L1764.74 328.769L1764.72 328.686L1764.7 328.603L1764.68 328.52L1764.65 328.437L1764.63 328.354L1764.61 328.271L1764.59 328.188L1764.56 328.104L1764.54 328.021L1764.52 327.938L1764.5 327.855L1764.47 327.772L1764.45 327.689L1764.43 327.606L1764.41 327.523L1764.38 327.439L1764.36 327.356L1764.34 327.273L1764.32 327.19L1764.29 327.107L1764.27 327.023L1764.25 326.94L1764.22 326.857L1764.2 326.774L1764.18 326.69L1764.16 326.607L1764.13 326.524L1764.11 326.44L1764.09 326.357L1764.07 326.274L1764.04 326.19L1764.02 326.107L1764 326.023L1763.98 325.94L1763.95 325.857L1763.93 325.773L1763.91 325.69L1763.88 325.606L1763.86 325.523L1763.84 325.439L1763.82 325.356L1763.79 325.272L1763.77 325.189L1763.75 325.105L1763.73 325.022L1763.7 324.938L1763.68 324.855L1763.66 324.771L1763.64 324.688L1763.61 324.604L1763.59 324.52L1763.57 324.437L1763.54 324.353L1763.52 324.269L1763.5 324.186L1763.48 324.102L1763.45 324.018L1763.43 323.935L1763.41 323.851L1763.38 323.767L1763.36 323.683L1763.34 323.6L1763.32 323.516L1763.29 323.432L1763.27 323.348L1763.25 323.265L1763.23 323.181L1763.2 323.097L1763.18 323.013L1763.16 322.929L1763.13 322.845L1763.11 322.761L1763.09 322.678L1763.07 322.594L1763.04 322.51L1763.02 322.426L1763 322.342L1762.97 322.258L1762.95 322.174L1762.93 322.09L1762.91 322.006L1762.88 321.922L1762.86 321.838L1762.84 321.754L1762.81 321.67L1762.79 321.586L1762.77 321.502L1762.75 321.418L1762.72 321.334L1762.7 321.25L1762.68 321.165L1762.65 321.081L1762.63 320.997L1762.61 320.913L1762.59 320.829L1762.56 320.745L1762.54 320.661L1762.52 320.576L1762.49 320.492L1762.47 320.408L1762.45 320.324L1762.43 320.239L1762.4 320.155L1762.38 320.071L1762.36 319.987L1762.33 319.902L1762.31 319.818L1762.29 319.734L1762.27 319.649L1762.24 319.565L1762.22 319.481L1762.2 319.396L1762.17 319.312L1762.15 319.227L1762.13 319.143L1762.1 319.059L1762.08 318.974Z" stroke="url(#paint0_linear_1430_1732)" stroke-width="1.5"/>
<path opacity="0.3" d="M1757.95 303.772L1757.95 303.765C1781.76 288.905 1798.03 272.121 1814.2 255.441C1820.23 249.227 1826.24 243.028 1832.62 236.948C1856.26 214.426 1885.17 193.323 1939.13 178.648C2007.92 159.945 2047.72 170.628 2087.62 181.341L2087.63 181.343C2127.64 192.081 2167.75 202.845 2236.92 184.036C2297.71 167.507 2327.25 142.74 2353.01 116.992C2356.53 113.47 2359.98 109.931 2363.43 106.395C2385.03 84.2554 2406.54 62.1975 2445.34 44.6214C2455.24 76.2038 2466.54 117.771 2479.24 169.329L1773.57 361.216L1773.54 361.099L1773.5 360.979L1773.47 360.859L1773.44 360.739L1773.41 360.619L1773.37 360.499L1773.34 360.38L1773.31 360.26L1773.27 360.14L1773.24 360.02L1773.21 359.9L1773.18 359.781L1773.14 359.661L1773.11 359.541L1773.08 359.422L1773.05 359.302L1773.01 359.182L1772.98 359.063L1772.95 358.943L1772.92 358.824L1772.88 358.704L1772.85 358.584L1772.82 358.465L1772.79 358.345L1772.75 358.226L1772.72 358.107L1772.69 357.987L1772.66 357.868L1772.62 357.748L1772.59 357.629L1772.56 357.51L1772.53 357.39L1772.49 357.271L1772.46 357.152L1772.43 357.033L1772.4 356.913L1772.37 356.794L1772.33 356.675L1772.3 356.556L1772.27 356.437L1772.24 356.317L1772.2 356.198L1772.17 356.079L1772.14 355.96L1772.11 355.841L1772.07 355.722L1772.04 355.603L1772.01 355.484L1771.98 355.365L1771.94 355.246L1771.91 355.127L1771.88 355.008L1771.85 354.89L1771.81 354.771L1771.78 354.652L1771.75 354.533L1771.72 354.414L1771.69 354.296L1771.65 354.177L1771.62 354.058L1771.59 353.939L1771.56 353.821L1771.52 353.702L1771.49 353.583L1771.46 353.465L1771.43 353.346L1771.4 353.228L1771.36 353.109L1771.33 352.991L1771.3 352.872L1771.27 352.754L1771.23 352.635L1771.2 352.517L1771.17 352.398L1771.14 352.28L1771.11 352.161L1771.07 352.043L1771.04 351.925L1771.01 351.806L1770.98 351.688L1770.94 351.57L1770.91 351.452L1770.88 351.333L1770.85 351.215L1770.82 351.097L1770.78 350.979L1770.75 350.861L1770.72 350.743L1770.69 350.624L1770.66 350.506L1770.62 350.388L1770.59 350.27L1770.56 350.152L1770.53 350.034L1770.49 349.916L1770.46 349.798L1770.43 349.68L1770.4 349.562L1770.37 349.445L1770.33 349.327L1770.3 349.209L1770.27 349.091L1770.24 348.973L1770.21 348.855L1770.17 348.738L1770.14 348.62L1770.11 348.502L1770.08 348.384L1770.05 348.267L1770.01 348.149L1769.98 348.031L1769.95 347.914L1769.92 347.796L1769.89 347.679L1769.85 347.561L1769.82 347.444L1769.79 347.326L1769.76 347.209L1769.73 347.091L1769.69 346.974L1769.66 346.856L1769.63 346.739L1769.6 346.621L1769.57 346.504L1769.54 346.387L1769.5 346.269L1769.47 346.152L1769.44 346.035L1769.41 345.918L1769.38 345.8L1769.34 345.683L1769.31 345.566L1769.28 345.449L1769.25 345.332L1769.22 345.214L1769.18 345.097L1769.15 344.98L1769.12 344.863L1769.09 344.746L1769.06 344.629L1769.03 344.512L1768.99 344.395L1768.96 344.278L1768.93 344.161L1768.9 344.044L1768.87 343.927L1768.83 343.811L1768.8 343.694L1768.77 343.577L1768.74 343.46L1768.71 343.343L1768.68 343.227L1768.64 343.11L1768.61 342.993L1768.58 342.876L1768.55 342.76L1768.52 342.643L1768.49 342.526L1768.45 342.41L1768.42 342.293L1768.39 342.177L1768.36 342.06L1768.33 341.944L1768.3 341.827L1768.26 341.711L1768.23 341.594L1768.2 341.478L1768.17 341.361L1768.14 341.245L1768.11 341.128L1768.07 341.012L1768.04 340.896L1768.01 340.779L1767.98 340.663L1767.95 340.547L1767.92 340.431L1767.88 340.314L1767.85 340.198L1767.82 340.082L1767.79 339.966L1767.76 339.85L1767.73 339.733L1767.69 339.617L1767.66 339.501L1767.63 339.385L1767.6 339.269L1767.57 339.153L1767.54 339.037L1767.51 338.921L1767.47 338.805L1767.44 338.689L1767.41 338.573L1767.38 338.457L1767.35 338.342L1767.32 338.226L1767.28 338.11L1767.25 337.994L1767.22 337.878L1767.19 337.762L1767.16 337.647L1767.13 337.531L1767.1 337.415L1767.06 337.3L1767.03 337.184L1767 337.068L1766.97 336.953L1766.94 336.837L1766.91 336.721L1766.88 336.606L1766.84 336.49L1766.81 336.375L1766.78 336.259L1766.75 336.144L1766.72 336.028L1766.69 335.913L1766.66 335.798L1766.62 335.682L1766.59 335.567L1766.56 335.452L1766.53 335.336L1766.5 335.221L1766.47 335.106L1766.44 334.99L1766.4 334.875L1766.37 334.76L1766.34 334.645L1766.31 334.53L1766.28 334.414L1766.25 334.299L1766.22 334.184L1766.19 334.069L1766.15 333.954L1766.12 333.839L1766.09 333.724L1766.06 333.609L1766.03 333.494L1766 333.379L1765.97 333.264L1765.94 333.149L1765.9 333.034L1765.87 332.919L1765.84 332.804L1765.81 332.69L1765.78 332.575L1765.75 332.46L1765.72 332.345L1765.69 332.231L1765.65 332.116L1765.62 332.001L1765.59 331.886L1765.56 331.772L1765.53 331.657L1765.5 331.542L1765.47 331.428L1765.44 331.313L1765.41 331.199L1765.37 331.084L1765.34 330.97L1765.31 330.855L1765.28 330.741L1765.25 330.626L1765.22 330.512L1765.19 330.397L1765.16 330.283L1765.13 330.169L1765.09 330.054L1765.06 329.94L1765.03 329.826L1765 329.711L1764.97 329.597L1764.94 329.483L1764.91 329.369L1764.88 329.254L1764.85 329.14L1764.81 329.026L1764.78 328.912L1764.75 328.798L1764.72 328.684L1764.69 328.57L1764.66 328.456L1764.63 328.342L1764.6 328.228L1764.57 328.114L1764.54 328L1764.5 327.886L1764.47 327.772L1764.44 327.658L1764.41 327.544L1764.38 327.43L1764.35 327.316L1764.32 327.203L1764.29 327.089L1764.26 326.975L1764.23 326.861L1764.19 326.748L1764.16 326.634L1764.13 326.52L1764.1 326.406L1764.07 326.293L1764.04 326.179L1764.01 326.066L1763.98 325.952L1763.95 325.838L1763.92 325.725L1763.89 325.611L1763.86 325.498L1763.82 325.384L1763.79 325.271L1763.76 325.158L1763.73 325.044L1763.7 324.931L1763.67 324.817L1763.64 324.704L1763.61 324.591L1763.58 324.477L1763.55 324.364L1763.52 324.251L1763.49 324.138L1763.45 324.024L1763.42 323.911L1763.39 323.798L1763.36 323.685L1763.33 323.572L1763.3 323.459L1763.27 323.346L1763.24 323.232L1763.21 323.119L1763.18 323.006L1763.15 322.893L1763.12 322.78L1763.09 322.667L1763.05 322.554L1763.02 322.442L1762.99 322.329L1762.96 322.216L1762.93 322.103L1762.9 321.99L1762.87 321.877L1762.84 321.764L1762.81 321.652L1762.78 321.539L1762.75 321.426L1762.72 321.314L1762.69 321.201L1762.66 321.088L1762.63 320.976L1762.59 320.863L1762.56 320.75L1762.53 320.638L1762.5 320.525L1762.47 320.413L1762.44 320.3L1762.41 320.188L1762.38 320.075L1762.35 319.963L1762.32 319.85L1762.29 319.738L1762.26 319.625L1762.23 319.513L1762.2 319.401L1762.17 319.288L1762.14 319.176L1762.11 319.064L1762.07 318.952L1762.04 318.839L1762.01 318.727L1761.98 318.615L1761.95 318.503L1761.92 318.391L1761.89 318.278L1761.86 318.166L1761.83 318.054L1761.8 317.942L1761.77 317.83L1761.74 317.718L1761.71 317.606L1761.68 317.494L1761.65 317.382L1761.62 317.27L1761.59 317.158L1761.56 317.046L1761.53 316.934L1761.5 316.823L1761.47 316.711L1761.44 316.599L1761.4 316.487L1761.37 316.375L1761.34 316.264L1761.31 316.152L1761.28 316.04L1761.25 315.928L1761.22 315.817L1761.19 315.705L1761.16 315.593L1761.13 315.482L1761.1 315.37L1761.07 315.259L1761.04 315.147L1761.01 315.036L1760.98 314.924L1760.95 314.813L1760.92 314.701L1760.89 314.59L1760.86 314.478L1760.83 314.367L1760.8 314.256L1760.77 314.144L1760.74 314.033L1760.71 313.922L1760.68 313.81L1760.65 313.699L1760.62 313.588L1760.59 313.477L1760.56 313.365L1760.53 313.254L1760.5 313.143L1760.47 313.032L1760.44 312.921L1760.4 312.81L1760.37 312.699L1760.34 312.588L1760.31 312.477L1760.28 312.366L1760.25 312.255L1760.22 312.144L1760.19 312.033L1760.16 311.922L1760.13 311.811L1760.1 311.7L1760.07 311.589L1760.04 311.478L1760.01 311.367L1759.98 311.257L1759.95 311.146L1759.92 311.035L1759.89 310.924L1759.86 310.814L1759.83 310.703L1759.8 310.592L1759.77 310.482L1759.74 310.371L1759.71 310.26L1759.68 310.15L1759.65 310.039L1759.62 309.929L1759.59 309.818L1759.56 309.708L1759.53 309.597L1759.5 309.487L1759.47 309.376L1759.44 309.266L1759.41 309.155L1759.38 309.045L1759.35 308.935L1759.32 308.824L1759.29 308.714L1759.26 308.604L1759.23 308.494L1759.2 308.383L1759.17 308.273L1759.14 308.163L1759.11 308.053L1759.08 307.943L1759.05 307.832L1759.02 307.722L1758.99 307.612L1758.96 307.502L1758.93 307.392L1758.9 307.282L1758.87 307.172L1758.84 307.062L1758.81 306.952L1758.78 306.842L1758.75 306.732L1758.72 306.622L1758.69 306.512L1758.66 306.403L1758.63 306.293L1758.6 306.183L1758.57 306.073L1758.54 305.963L1758.51 305.854L1758.48 305.744L1758.45 305.634L1758.42 305.524L1758.39 305.415L1758.36 305.305L1758.33 305.195L1758.3 305.086L1758.27 304.976L1758.25 304.867L1758.22 304.757L1758.19 304.648L1758.16 304.538L1758.13 304.429L1758.1 304.319L1758.07 304.21L1758.04 304.1L1758.01 303.991L1757.98 303.882L1757.95 303.772Z" stroke="url(#paint1_linear_1430_1732)" stroke-width="1.5"/>
<path opacity="0.5" d="M2478.62 167.125L2478.64 167.186L1773 359.064C1755.74 290.74 1742.66 242.597 1733.76 214.652C1769.23 214.288 1796.32 224.005 1823.55 233.773C1829.97 236.074 1836.39 238.378 1842.94 240.554C1877.52 252.054 1915.23 259.866 1972.2 244.375C2006.04 235.174 2029.83 222.333 2048.59 207.66C2067.33 193.002 2081.02 176.53 2094.67 160.124L2094.69 160.101C2108.35 143.676 2121.95 127.316 2140.56 112.764C2159.15 98.2204 2182.76 85.4661 2216.41 76.3153C2274.79 60.4408 2312.38 69.2825 2347.32 81.3959C2352.6 83.2284 2357.83 85.1379 2363.07 87.0493C2392.31 97.7267 2421.71 108.464 2462.05 106.175L2462.06 106.214L2462.1 106.37L2462.14 106.526L2462.18 106.682L2462.23 106.838L2462.27 106.994L2462.31 107.149L2462.35 107.305L2462.4 107.46L2462.44 107.615L2462.48 107.77L2462.52 107.925L2462.56 108.08L2462.61 108.234L2462.65 108.389L2462.69 108.543L2462.73 108.697L2462.77 108.851L2462.82 109.005L2462.86 109.159L2462.9 109.313L2462.94 109.466L2462.98 109.62L2463.03 109.773L2463.07 109.926L2463.11 110.079L2463.15 110.232L2463.19 110.385L2463.23 110.537L2463.27 110.69L2463.32 110.842L2463.36 110.994L2463.4 111.146L2463.44 111.298L2463.48 111.45L2463.52 111.601L2463.56 111.753L2463.6 111.904L2463.65 112.055L2463.69 112.206L2463.73 112.357L2463.77 112.508L2463.81 112.659L2463.85 112.809L2463.89 112.959L2463.93 113.11L2463.97 113.26L2464.01 113.41L2464.05 113.56L2464.1 113.709L2464.14 113.859L2464.18 114.008L2464.22 114.157L2464.26 114.307L2464.3 114.456L2464.34 114.604L2464.38 114.753L2464.42 114.902L2464.46 115.05L2464.5 115.198L2464.54 115.347L2464.58 115.495L2464.62 115.642L2464.66 115.79L2464.7 115.938L2464.74 116.085L2464.78 116.233L2464.82 116.38L2464.86 116.527L2464.9 116.674L2464.94 116.821L2464.98 116.967L2465.02 117.114L2465.06 117.26L2465.1 117.406L2465.14 117.553L2465.18 117.699L2465.22 117.844L2465.26 117.99L2465.3 118.136L2465.34 118.281L2465.38 118.426L2465.42 118.571L2465.46 118.716L2465.5 118.861L2465.54 119.006L2465.58 119.151L2465.61 119.295L2465.65 119.439L2465.69 119.584L2465.73 119.728L2465.77 119.872L2465.81 120.015L2465.85 120.159L2465.89 120.302L2465.93 120.446L2465.97 120.589L2466.01 120.732L2466.04 120.875L2466.08 121.018L2466.12 121.16L2466.16 121.303L2466.2 121.445L2466.24 121.588L2466.28 121.73L2466.31 121.872L2466.35 122.014L2466.39 122.155L2466.43 122.297L2466.47 122.438L2466.51 122.58L2466.55 122.721L2466.58 122.862L2466.62 123.003L2466.66 123.143L2466.7 123.284L2466.74 123.425L2466.78 123.565L2466.81 123.705L2466.85 123.845L2466.89 123.985L2466.93 124.125L2466.97 124.264L2467 124.404L2467.04 124.543L2467.08 124.683L2467.12 124.822L2467.15 124.961L2467.19 125.099L2467.23 125.238L2467.27 125.377L2467.31 125.515L2467.34 125.653L2467.38 125.792L2467.42 125.93L2467.46 126.067L2467.49 126.205L2467.53 126.343L2467.57 126.48L2467.61 126.617L2467.64 126.755L2467.68 126.892L2467.72 127.029L2467.75 127.165L2467.79 127.302L2467.83 127.438L2467.87 127.575L2467.9 127.711L2467.94 127.847L2467.98 127.983L2468.01 128.119L2468.05 128.255L2468.09 128.39L2468.12 128.525L2468.16 128.661L2468.2 128.796L2468.23 128.931L2468.27 129.066L2468.31 129.2L2468.34 129.335L2468.38 129.469L2468.42 129.604L2468.45 129.738L2468.49 129.872L2468.53 130.006L2468.56 130.139L2468.6 130.273L2468.64 130.406L2468.67 130.54L2468.71 130.673L2468.74 130.806L2468.78 130.939L2468.82 131.072L2468.85 131.204L2468.89 131.337L2468.92 131.469L2468.96 131.602L2469 131.734L2469.03 131.866L2469.07 131.997L2469.1 132.129L2469.14 132.261L2469.18 132.392L2469.21 132.523L2469.25 132.654L2469.28 132.785L2469.32 132.916L2469.35 133.047L2469.39 133.178L2469.42 133.308L2469.46 133.438L2469.5 133.569L2469.53 133.699L2469.57 133.828L2469.6 133.958L2469.64 134.088L2469.67 134.217L2469.71 134.347L2469.74 134.476L2469.78 134.605L2469.81 134.734L2469.85 134.863L2469.88 134.991L2469.92 135.12L2469.95 135.248L2469.99 135.376L2470.02 135.505L2470.06 135.633L2470.09 135.76L2470.13 135.888L2470.16 136.016L2470.2 136.143L2470.23 136.27L2470.26 136.398L2470.3 136.525L2470.33 136.651L2470.37 136.778L2470.4 136.905L2470.44 137.031L2470.47 137.158L2470.51 137.284L2470.54 137.41L2470.57 137.536L2470.61 137.661L2470.64 137.787L2470.68 137.913L2470.71 138.038L2470.74 138.163L2470.78 138.288L2470.81 138.413L2470.85 138.538L2470.88 138.663L2470.91 138.787L2470.95 138.912L2470.98 139.036L2471.02 139.16L2471.05 139.284L2471.08 139.408L2471.12 139.532L2471.15 139.655L2471.18 139.779L2471.22 139.902L2471.25 140.025L2471.28 140.148L2471.32 140.271L2471.35 140.394L2471.38 140.516L2471.42 140.639L2471.45 140.761L2471.48 140.883L2471.52 141.005L2471.55 141.127L2471.58 141.249L2471.62 141.371L2471.65 141.492L2471.68 141.614L2471.72 141.735L2471.75 141.856L2471.78 141.977L2471.81 142.098L2471.85 142.219L2471.88 142.339L2471.91 142.46L2471.95 142.58L2471.98 142.7L2472.01 142.82L2472.04 142.94L2472.08 143.06L2472.11 143.179L2472.14 143.299L2472.17 143.418L2472.21 143.537L2472.24 143.656L2472.27 143.775L2472.3 143.894L2472.34 144.013L2472.37 144.131L2472.4 144.249L2472.43 144.368L2472.46 144.486L2472.5 144.604L2472.53 144.721L2472.56 144.839L2472.59 144.957L2472.62 145.074L2472.66 145.191L2472.69 145.308L2472.72 145.425L2472.75 145.542L2472.78 145.659L2472.81 145.776L2472.85 145.892L2472.88 146.008L2472.91 146.124L2472.94 146.24L2472.97 146.356L2473 146.472L2473.04 146.588L2473.07 146.703L2473.1 146.819L2473.13 146.934L2473.16 147.049L2473.19 147.164L2473.22 147.279L2473.25 147.393L2473.29 147.508L2473.32 147.622L2473.35 147.736L2473.38 147.85L2473.41 147.964L2473.44 148.078L2473.47 148.192L2473.5 148.305L2473.53 148.419L2473.56 148.532L2473.6 148.645L2473.63 148.758L2473.66 148.871L2473.69 148.984L2473.72 149.096L2473.75 149.209L2473.78 149.321L2473.81 149.433L2473.84 149.545L2473.87 149.657L2473.9 149.769L2473.93 149.881L2473.96 149.992L2473.99 150.104L2474.02 150.215L2474.05 150.326L2474.08 150.437L2474.11 150.548L2474.14 150.658L2474.17 150.769L2474.2 150.879L2474.23 150.989L2474.26 151.1L2474.29 151.21L2474.32 151.319L2474.35 151.429L2474.38 151.539L2474.41 151.648L2474.44 151.757L2474.47 151.867L2474.5 151.976L2474.53 152.084L2474.56 152.193L2474.59 152.302L2474.62 152.41L2474.65 152.519L2474.68 152.627L2474.71 152.735L2474.74 152.843L2474.77 152.951L2474.8 153.058L2474.82 153.166L2474.85 153.273L2474.88 153.38L2474.91 153.487L2474.94 153.594L2474.97 153.701L2475 153.808L2475.03 153.914L2475.06 154.021L2475.09 154.127L2475.11 154.233L2475.14 154.339L2475.17 154.445L2475.2 154.551L2475.23 154.656L2475.26 154.762L2475.29 154.867L2475.32 154.972L2475.34 155.077L2475.37 155.182L2475.4 155.287L2475.43 155.392L2475.46 155.496L2475.49 155.6L2475.51 155.705L2475.54 155.809L2475.57 155.913L2475.6 156.017L2475.63 156.12L2475.66 156.224L2475.68 156.327L2475.71 156.43L2475.74 156.533L2475.77 156.636L2475.8 156.739L2475.82 156.842L2475.85 156.945L2475.88 157.047L2475.91 157.149L2475.94 157.251L2475.96 157.353L2475.99 157.455L2476.02 157.557L2476.05 157.659L2476.07 157.76L2476.1 157.861L2476.13 157.963L2476.16 158.064L2476.18 158.165L2476.21 158.265L2476.24 158.366L2476.27 158.466L2476.29 158.567L2476.32 158.667L2476.35 158.767L2476.37 158.867L2476.4 158.967L2476.43 159.067L2476.46 159.166L2476.48 159.266L2476.51 159.365L2476.54 159.464L2476.56 159.563L2476.59 159.662L2476.62 159.761L2476.64 159.859L2476.67 159.958L2476.7 160.056L2476.72 160.154L2476.75 160.252L2476.78 160.35L2476.8 160.448L2476.83 160.545L2476.86 160.643L2476.88 160.74L2476.91 160.837L2476.94 160.934L2476.96 161.031L2476.99 161.128L2477.02 161.225L2477.04 161.321L2477.07 161.418L2477.09 161.514L2477.12 161.61L2477.15 161.706L2477.17 161.802L2477.2 161.898L2477.22 161.993L2477.25 162.089L2477.28 162.184L2477.3 162.279L2477.33 162.374L2477.35 162.469L2477.38 162.564L2477.41 162.658L2477.43 162.753L2477.46 162.847L2477.48 162.941L2477.51 163.035L2477.53 163.129L2477.56 163.223L2477.58 163.317L2477.61 163.41L2477.64 163.503L2477.66 163.597L2477.69 163.69L2477.71 163.783L2477.74 163.875L2477.76 163.968L2477.79 164.061L2477.81 164.153L2477.84 164.245L2477.86 164.337L2477.89 164.429L2477.91 164.521L2477.94 164.613L2477.96 164.705L2477.99 164.796L2478.01 164.887L2478.04 164.979L2478.06 165.07L2478.09 165.16L2478.11 165.251L2478.14 165.342L2478.16 165.432L2478.18 165.523L2478.21 165.613L2478.23 165.703L2478.26 165.793L2478.28 165.883L2478.31 165.972L2478.33 166.062L2478.36 166.151L2478.38 166.24L2478.4 166.329L2478.43 166.418L2478.45 166.507L2478.48 166.596L2478.5 166.685L2478.52 166.773L2478.55 166.861L2478.57 166.949L2478.6 167.037L2478.62 167.125Z" stroke="url(#paint2_linear_1430_1732)" stroke-width="1.5"/>
<path d="M1753.34 286.822C1824.65 267.515 1863.57 269.502 1902.54 271.491L1902.55 271.492C1941.74 273.492 1980.97 275.492 2052.96 255.916C2124.96 236.339 2157.78 214.747 2190.55 193.18L2190.56 193.172C2223.27 171.651 2255.94 150.154 2327.71 130.638C2391.44 113.309 2429.37 112.94 2464.43 114.47C2469.6 133.779 2474.53 152.067 2479.22 169.334L1773.57 361.216L1753.34 286.822Z" stroke="url(#paint3_linear_1430_1732)" stroke-width="1.5"/>
</g>
<g opacity="0.6">
<path opacity="0.3" d="M-302.514 180.073L-302.514 180.07C-286.13 184.412 -267.994 188.077 -247.186 190.928C-154.432 203.633 -104.862 186.956 -55.3767 170.303L-55.3653 170.299C-5.9732 153.678 43.3382 137.084 135.75 149.743C228.16 162.401 271.191 191.644 314.294 220.935L314.305 220.942C357.49 250.289 400.75 279.682 493.505 292.388C564.852 302.161 608.95 294.318 648.806 282.69L648.777 282.907L648.746 283.133L648.714 283.36L648.684 283.586L648.653 283.812L648.622 284.037L648.591 284.263L648.56 284.488L648.529 284.713L648.498 284.938L648.468 285.162L648.437 285.387L648.406 285.611L648.376 285.834L648.345 286.058L648.314 286.281L648.284 286.505L648.253 286.728L648.223 286.95L648.192 287.173L648.162 287.395L648.131 287.617L648.101 287.839L648.071 288.06L648.04 288.282L648.01 288.503L647.98 288.724L647.95 288.944L647.919 289.165L647.889 289.385L647.859 289.605L647.829 289.825L647.799 290.044L647.769 290.263L647.739 290.482L647.709 290.701L647.679 290.92L647.649 291.138L647.619 291.356L647.589 291.574L647.559 291.792L647.53 292.009L647.5 292.227L647.47 292.444L647.44 292.661L647.411 292.877L647.381 293.093L647.352 293.309L647.322 293.525L647.292 293.741L647.263 293.956L647.233 294.172L647.204 294.387L647.175 294.601L647.145 294.816L647.116 295.03L647.087 295.244L647.057 295.458L647.028 295.672L646.999 295.885L646.97 296.098L646.94 296.311L646.911 296.524L646.882 296.736L646.853 296.948L646.824 297.16L646.795 297.372L646.766 297.584L646.737 297.795L646.708 298.006L646.679 298.217L646.65 298.428L646.622 298.638L646.593 298.848L646.564 299.058L646.535 299.268L646.507 299.477L646.478 299.687L646.449 299.896L646.421 300.105L646.392 300.313L646.364 300.521L646.335 300.73L646.307 300.938L646.278 301.145L646.25 301.353L646.221 301.56L646.193 301.767L646.165 301.974L646.136 302.18L646.108 302.386L646.08 302.593L646.052 302.798L646.024 303.004L645.995 303.209L645.967 303.415L645.939 303.62L645.911 303.824L645.883 304.029L645.855 304.233L645.827 304.437L645.799 304.641L645.772 304.845L645.744 305.048L645.716 305.251L645.688 305.454L645.66 305.657L645.633 305.859L645.605 306.061L645.577 306.263L645.55 306.465L645.522 306.667L645.494 306.868L645.467 307.069L645.439 307.27L645.412 307.47L645.384 307.671L645.357 307.871L645.33 308.071L645.302 308.271L645.275 308.47L645.248 308.669L645.22 308.868L645.193 309.067L645.166 309.266L645.139 309.464L645.112 309.662L645.084 309.86L645.057 310.058L645.03 310.255L645.003 310.452L644.976 310.649L644.949 310.846L644.922 311.043L644.896 311.239L644.869 311.435L644.842 311.631L644.815 311.827L644.788 312.022L644.762 312.217L644.735 312.412L644.708 312.607L644.682 312.801L644.655 312.996L644.628 313.19L644.602 313.383L644.575 313.577L644.549 313.77L644.522 313.963L644.496 314.156L644.47 314.349L644.443 314.541L644.417 314.734L644.391 314.926L644.364 315.117L644.338 315.309L644.312 315.5L644.286 315.691L644.26 315.882L644.233 316.073L644.207 316.263L644.181 316.453L644.155 316.643L644.129 316.833L644.103 317.022L644.077 317.212L644.052 317.401L644.026 317.589L644 317.778L643.974 317.966L643.948 318.154L643.923 318.342L643.897 318.53L643.871 318.717L643.846 318.905L643.82 319.092L643.794 319.278L643.769 319.465L643.743 319.651L643.718 319.837L643.692 320.023L643.667 320.209L643.642 320.394L643.616 320.579L643.591 320.764L643.566 320.949L643.54 321.133L643.515 321.318L643.49 321.502L643.465 321.685L643.439 321.869L643.414 322.052L643.389 322.235L643.364 322.418L643.339 322.601L643.314 322.783L643.289 322.965L643.264 323.147L643.239 323.329L643.215 323.511L643.19 323.692L643.165 323.873L643.14 324.054L643.115 324.234L643.091 324.415L643.066 324.595L643.041 324.775L643.017 324.955L642.992 325.134L642.968 325.313L642.943 325.492L642.919 325.671L642.894 325.85L642.87 326.028L642.845 326.206L642.821 326.384L642.797 326.562L642.772 326.739L642.748 326.916L642.724 327.093L642.7 327.27L642.675 327.446L642.651 327.623L642.627 327.799L642.603 327.975L642.579 328.15L642.555 328.325L642.531 328.501L642.507 328.676L642.483 328.85L642.459 329.025L642.435 329.199L642.412 329.373L642.388 329.547L642.364 329.72L642.34 329.894L642.317 330.067L642.293 330.24L642.269 330.412L642.246 330.585L642.222 330.757L642.198 330.929L642.175 331.1L642.151 331.272L642.128 331.443L642.105 331.614L642.081 331.785L642.058 331.956L642.034 332.126L642.011 332.296L641.988 332.466L641.965 332.636L641.941 332.805L641.918 332.974L641.895 333.143L641.872 333.312L641.849 333.481L641.826 333.649L641.803 333.817L641.78 333.985L641.757 334.153L641.734 334.32L641.711 334.487L641.688 334.654L641.665 334.821L641.643 334.987L641.62 335.154L641.597 335.32L641.574 335.486L641.552 335.651L641.529 335.816L641.506 335.982L641.484 336.146L641.461 336.311L641.439 336.476L641.416 336.64L641.394 336.804L641.371 336.968L641.349 337.131L641.326 337.294L641.304 337.458L641.282 337.62L641.26 337.783L641.237 337.945L641.215 338.108L641.193 338.269L641.171 338.431L641.149 338.593L641.127 338.754L641.105 338.915L641.082 339.076L641.06 339.236L641.039 339.397L641.017 339.557L640.995 339.717L640.973 339.876L640.951 340.036L640.929 340.195L640.907 340.354L640.886 340.513L640.864 340.671L640.842 340.83L640.821 340.988L640.799 341.146L640.777 341.303L640.756 341.461L640.734 341.618L640.713 341.775L640.691 341.931L640.67 342.088L640.648 342.244L640.627 342.4L640.606 342.556L640.584 342.712L640.563 342.867L640.542 343.022L640.521 343.177L640.5 343.332L640.478 343.486L640.457 343.64L640.436 343.794L640.415 343.948L640.394 344.101L640.373 344.255L640.352 344.408L640.331 344.561L640.31 344.713L640.289 344.866L640.269 345.018L640.248 345.17L640.227 345.321L640.206 345.473L640.185 345.624L640.165 345.775L640.144 345.926L640.124 346.077L640.103 346.227L640.082 346.377L640.062 346.527L640.041 346.677L640.021 346.826L640 346.975L639.98 347.124L639.96 347.273L639.939 347.421L639.919 347.57L639.899 347.718L639.878 347.866L639.858 348.013L639.838 348.161L639.818 348.308L639.798 348.455L639.778 348.601L639.758 348.748L639.738 348.894L639.718 349.04L639.698 349.186L639.678 349.331L639.658 349.477L639.638 349.622L639.618 349.767L639.598 349.911L639.578 350.056L639.559 350.2L639.539 350.344L639.519 350.488L639.5 350.631L639.48 350.775L639.46 350.918L639.441 351.06L639.421 351.203L639.402 351.345L639.382 351.488L639.363 351.629L639.343 351.771L639.324 351.913L639.305 352.054L639.285 352.195L639.266 352.336L639.247 352.476L639.228 352.617L639.208 352.757L639.189 352.897L639.17 353.036L639.151 353.176L639.132 353.315L639.113 353.454L639.094 353.592L639.075 353.731L639.056 353.869L639.037 354.007L639.018 354.145L638.999 354.283L638.981 354.42L638.962 354.557L638.943 354.694L638.924 354.831L638.906 354.967L638.887 355.104L638.868 355.24L638.85 355.375L638.831 355.511L638.813 355.646L638.794 355.781L638.776 355.916L638.757 356.051L638.739 356.185L638.72 356.319L638.702 356.453L638.684 356.587L638.665 356.721L638.647 356.854L638.629 356.987L638.611 357.12L638.593 357.252L638.575 357.385L638.556 357.517L638.538 357.649L638.52 357.78L638.502 357.912L638.484 358.043L638.466 358.174L638.448 358.305L638.431 358.435L638.413 358.566L638.395 358.696L638.377 358.826L638.359 358.955L638.342 359.085L638.324 359.214L638.306 359.343L638.289 359.471L638.271 359.6L638.253 359.728L638.236 359.856L638.218 359.984L638.201 360.112L638.184 360.239L638.166 360.366L638.149 360.493L638.131 360.62L638.114 360.746L638.097 360.872L638.08 360.998L638.062 361.124L638.045 361.25L638.028 361.375L638.011 361.5L637.994 361.625L637.977 361.75L637.96 361.874L637.943 361.998L637.926 362.122L637.909 362.246L637.892 362.369L637.875 362.493L637.858 362.616L637.841 362.738L637.824 362.861L637.808 362.983L637.791 363.105L637.774 363.227L637.758 363.349L637.741 363.47L637.724 363.592L637.708 363.713L637.691 363.833L637.675 363.954L637.658 364.074L637.642 364.194L637.625 364.314L637.609 364.434L637.593 364.553L637.576 364.672L637.56 364.791L637.544 364.91L637.527 365.028L637.511 365.147L637.495 365.265L637.479 365.383L637.463 365.5L637.447 365.617L637.431 365.735L637.415 365.851L637.399 365.968L637.383 366.085L637.367 366.201L637.351 366.317L637.335 366.433L637.319 366.548L637.304 366.663L637.288 366.778L637.272 366.893L637.256 367.008L637.241 367.122L637.225 367.236L637.209 367.35L637.194 367.464L637.178 367.578L637.163 367.691L637.157 367.734L-310.439 237.932L-310.434 237.894L-310.419 237.782L-310.404 237.67L-310.388 237.558L-310.373 237.447L-310.358 237.335L-310.342 237.223L-310.327 237.111L-310.312 237L-310.296 236.888L-310.281 236.776L-310.266 236.664L-310.251 236.552L-310.235 236.44L-310.22 236.328L-310.205 236.217L-310.189 236.105L-310.174 235.993L-310.159 235.881L-310.143 235.769L-310.128 235.657L-310.112 235.545L-310.097 235.433L-310.082 235.321L-310.066 235.208L-310.051 235.096L-310.036 234.984L-310.02 234.872L-310.005 234.76L-309.99 234.648L-309.974 234.536L-309.959 234.423L-309.944 234.311L-309.928 234.199L-309.913 234.087L-309.897 233.974L-309.882 233.862L-309.867 233.75L-309.851 233.637L-309.836 233.525L-309.82 233.413L-309.805 233.3L-309.79 233.188L-309.774 233.075L-309.759 232.963L-309.743 232.85L-309.728 232.738L-309.713 232.626L-309.697 232.513L-309.682 232.4L-309.666 232.288L-309.651 232.175L-309.636 232.063L-309.62 231.95L-309.605 231.838L-309.589 231.725L-309.574 231.612L-309.558 231.5L-309.543 231.387L-309.528 231.274L-309.512 231.161L-309.497 231.049L-309.481 230.936L-309.466 230.823L-309.45 230.71L-309.435 230.598L-309.419 230.485L-309.404 230.372L-309.388 230.259L-309.373 230.146L-309.358 230.033L-309.342 229.92L-309.327 229.807L-309.311 229.694L-309.296 229.581L-309.28 229.468L-309.265 229.355L-309.249 229.242L-309.234 229.129L-309.218 229.016L-309.203 228.903L-309.187 228.79L-309.172 228.677L-309.156 228.564L-309.141 228.451L-309.125 228.337L-309.11 228.224L-309.094 228.111L-309.079 227.998L-309.063 227.885L-309.048 227.771L-309.032 227.658L-309.017 227.545L-309.001 227.431L-308.986 227.318L-308.97 227.205L-308.955 227.091L-308.939 226.978L-308.923 226.865L-308.908 226.751L-308.892 226.638L-308.877 226.524L-308.861 226.411L-308.846 226.297L-308.83 226.184L-308.815 226.07L-308.799 225.957L-308.784 225.843L-308.768 225.73L-308.752 225.616L-308.737 225.502L-308.721 225.389L-308.706 225.275L-308.69 225.161L-308.675 225.048L-308.659 224.934L-308.643 224.82L-308.628 224.706L-308.612 224.593L-308.597 224.479L-308.581 224.365L-308.566 224.251L-308.55 224.137L-308.534 224.024L-308.519 223.91L-308.503 223.796L-308.488 223.682L-308.472 223.568L-308.456 223.454L-308.441 223.34L-308.425 223.226L-308.409 223.112L-308.394 222.998L-308.378 222.884L-308.363 222.77L-308.347 222.656L-308.331 222.542L-308.316 222.428L-308.3 222.314L-308.284 222.2L-308.269 222.085L-308.253 221.971L-308.238 221.857L-308.222 221.743L-308.206 221.629L-308.191 221.514L-308.175 221.4L-308.159 221.286L-308.144 221.172L-308.128 221.057L-308.112 220.943L-308.097 220.829L-308.081 220.714L-308.065 220.6L-308.05 220.485L-308.034 220.371L-308.018 220.257L-308.003 220.142L-307.987 220.028L-307.971 219.913L-307.956 219.799L-307.94 219.684L-307.924 219.57L-307.909 219.455L-307.893 219.34L-307.877 219.226L-307.861 219.111L-307.846 218.997L-307.83 218.882L-307.814 218.767L-307.799 218.653L-307.783 218.538L-307.767 218.423L-307.751 218.308L-307.736 218.194L-307.72 218.079L-307.704 217.964L-307.689 217.849L-307.673 217.734L-307.657 217.62L-307.641 217.505L-307.626 217.39L-307.61 217.275L-307.594 217.16L-307.578 217.045L-307.563 216.93L-307.547 216.815L-307.531 216.7L-307.515 216.585L-307.5 216.47L-307.484 216.355L-307.468 216.24L-307.452 216.125L-307.437 216.01L-307.421 215.895L-307.405 215.78L-307.389 215.664L-307.373 215.549L-307.358 215.434L-307.342 215.319L-307.326 215.204L-307.31 215.088L-307.295 214.973L-307.279 214.858L-307.263 214.743L-307.247 214.627L-307.231 214.512L-307.216 214.397L-307.2 214.281L-307.184 214.166L-307.168 214.05L-307.152 213.935L-307.137 213.82L-307.121 213.704L-307.105 213.589L-307.089 213.473L-307.073 213.358L-307.057 213.242L-307.042 213.127L-307.026 213.011L-307.01 212.895L-306.994 212.78L-306.978 212.664L-306.962 212.549L-306.947 212.433L-306.931 212.317L-306.915 212.202L-306.899 212.086L-306.883 211.97L-306.867 211.854L-306.852 211.739L-306.836 211.623L-306.82 211.507L-306.804 211.391L-306.788 211.275L-306.772 211.16L-306.756 211.044L-306.74 210.928L-306.725 210.812L-306.709 210.696L-306.693 210.58L-306.677 210.464L-306.661 210.348L-306.645 210.232L-306.629 210.116L-306.613 210L-306.597 209.884L-306.582 209.768L-306.566 209.652L-306.55 209.536L-306.534 209.42L-306.518 209.304L-306.502 209.187L-306.486 209.071L-306.47 208.955L-306.454 208.839L-306.438 208.723L-306.422 208.606L-306.407 208.49L-306.391 208.374L-306.375 208.258L-306.359 208.141L-306.343 208.025L-306.327 207.909L-306.311 207.792L-306.295 207.676L-306.279 207.559L-306.263 207.443L-306.247 207.327L-306.231 207.21L-306.215 207.094L-306.199 206.977L-306.183 206.861L-306.167 206.744L-306.151 206.628L-306.135 206.511L-306.119 206.394L-306.104 206.278L-306.088 206.161L-306.072 206.045L-306.056 205.928L-306.04 205.811L-306.024 205.695L-306.008 205.578L-305.992 205.461L-305.976 205.344L-305.96 205.228L-305.944 205.111L-305.928 204.994L-305.912 204.877L-305.896 204.76L-305.88 204.644L-305.864 204.527L-305.848 204.41L-305.832 204.293L-305.816 204.176L-305.8 204.059L-305.784 203.942L-305.768 203.825L-305.752 203.708L-305.735 203.591L-305.719 203.474L-305.703 203.357L-305.687 203.24L-305.671 203.123L-305.655 203.006L-305.639 202.889L-305.623 202.772L-305.607 202.655L-305.591 202.537L-305.575 202.42L-305.559 202.303L-305.543 202.186L-305.527 202.069L-305.511 201.951L-305.495 201.834L-305.479 201.717L-305.463 201.599L-305.447 201.482L-305.43 201.365L-305.414 201.247L-305.398 201.13L-305.382 201.013L-305.366 200.895L-305.35 200.778L-305.334 200.66L-305.318 200.543L-305.302 200.425L-305.286 200.308L-305.27 200.19L-305.254 200.073L-305.237 199.955L-305.221 199.838L-305.205 199.72L-305.189 199.602L-305.173 199.485L-305.157 199.367L-305.141 199.249L-305.125 199.132L-305.109 199.014L-305.092 198.896L-305.076 198.779L-305.06 198.661L-305.044 198.543L-305.028 198.425L-305.012 198.308L-304.996 198.19L-304.979 198.072L-304.963 197.954L-304.947 197.836L-304.931 197.718L-304.915 197.6L-304.899 197.482L-304.883 197.364L-304.866 197.246L-304.85 197.128L-304.834 197.01L-304.818 196.892L-304.802 196.774L-304.786 196.656L-304.769 196.538L-304.753 196.42L-304.737 196.302L-304.721 196.184L-304.705 196.066L-304.688 195.948L-304.672 195.829L-304.656 195.711L-304.64 195.593L-304.624 195.475L-304.607 195.357L-304.591 195.238L-304.575 195.12L-304.559 195.002L-304.543 194.883L-304.526 194.765L-304.51 194.647L-304.494 194.528L-304.478 194.41L-304.462 194.291L-304.445 194.173L-304.429 194.055L-304.413 193.936L-304.397 193.818L-304.38 193.699L-304.364 193.581L-304.348 193.462L-304.332 193.343L-304.315 193.225L-304.299 193.106L-304.283 192.988L-304.267 192.869L-304.251 192.75L-304.234 192.632L-304.218 192.513L-304.202 192.394L-304.185 192.276L-304.169 192.157L-304.153 192.038L-304.137 191.919L-304.12 191.801L-304.104 191.682L-304.088 191.563L-304.072 191.444L-304.055 191.325L-304.039 191.206L-304.023 191.087L-304.006 190.969L-303.99 190.85L-303.974 190.731L-303.958 190.612L-303.941 190.493L-303.925 190.374L-303.909 190.255L-303.892 190.136L-303.876 190.017L-303.86 189.898L-303.843 189.778L-303.827 189.659L-303.811 189.54L-303.794 189.421L-303.778 189.302L-303.762 189.183L-303.745 189.064L-303.729 188.944L-303.713 188.825L-303.696 188.706L-303.68 188.587L-303.664 188.467L-303.647 188.348L-303.631 188.229L-303.615 188.109L-303.598 187.99L-303.582 187.871L-303.566 187.751L-303.549 187.632L-303.533 187.512L-303.517 187.393L-303.5 187.273L-303.484 187.154L-303.468 187.034L-303.451 186.915L-303.435 186.795L-303.418 186.676L-303.402 186.556L-303.386 186.437L-303.369 186.317L-303.353 186.197L-303.336 186.078L-303.32 185.958L-303.304 185.838L-303.287 185.719L-303.271 185.599L-303.255 185.479L-303.238 185.36L-303.222 185.24L-303.205 185.12L-303.189 185L-303.172 184.88L-303.156 184.761L-303.14 184.641L-303.123 184.521L-303.107 184.401L-303.09 184.281L-303.074 184.161L-303.057 184.041L-303.041 183.921L-303.025 183.801L-303.008 183.681L-302.992 183.561L-302.975 183.441L-302.959 183.321L-302.942 183.201L-302.926 183.081L-302.91 182.961L-302.893 182.841L-302.877 182.721L-302.86 182.6L-302.844 182.48L-302.827 182.36L-302.811 182.24L-302.794 182.12L-302.778 181.999L-302.761 181.879L-302.745 181.759L-302.728 181.638L-302.712 181.518L-302.695 181.398L-302.679 181.277L-302.662 181.157L-302.646 181.037L-302.629 180.916L-302.613 180.796L-302.596 180.675L-302.58 180.555L-302.563 180.434L-302.547 180.314L-302.53 180.193L-302.514 180.073Z" stroke="url(#paint4_linear_1430_1732)" stroke-width="1.5"/>
<path opacity="0.3" d="M-299.571 158.587L-299.56 158.507C-263.155 152.155 -234.852 139.295 -206.699 126.503C-196.221 121.742 -185.763 116.99 -174.917 112.587C-134.763 96.2868 -89.0195 84.6194 -16.5485 94.5466C75.8237 107.2 118.055 142.117 160.381 177.112L160.387 177.117C202.787 212.173 245.283 247.307 338.08 260.018C419.627 271.188 467.978 255.176 512.308 235.894C518.374 233.255 524.361 230.557 530.346 227.861C567.878 210.949 605.305 194.084 661.226 192.251C656.624 238.123 648.467 297.638 636.754 370.8L-310.859 240.996L-310.844 240.882L-310.82 240.711L-310.797 240.54L-310.774 240.368L-310.75 240.197L-310.727 240.026L-310.703 239.855L-310.68 239.684L-310.656 239.513L-310.633 239.342L-310.61 239.171L-310.586 239L-310.563 238.829L-310.539 238.659L-310.516 238.488L-310.493 238.317L-310.469 238.146L-310.446 237.976L-310.422 237.805L-310.399 237.634L-310.376 237.463L-310.352 237.293L-310.329 237.122L-310.306 236.952L-310.282 236.781L-310.259 236.611L-310.235 236.44L-310.212 236.27L-310.189 236.099L-310.165 235.929L-310.142 235.759L-310.119 235.588L-310.095 235.418L-310.072 235.248L-310.049 235.078L-310.026 234.908L-310.002 234.737L-309.979 234.567L-309.956 234.397L-309.932 234.227L-309.909 234.057L-309.886 233.887L-309.862 233.717L-309.839 233.547L-309.816 233.377L-309.793 233.207L-309.769 233.037L-309.746 232.868L-309.723 232.698L-309.7 232.528L-309.676 232.358L-309.653 232.189L-309.63 232.019L-309.607 231.849L-309.583 231.68L-309.56 231.51L-309.537 231.341L-309.514 231.171L-309.491 231.002L-309.467 230.832L-309.444 230.663L-309.421 230.493L-309.398 230.324L-309.374 230.155L-309.351 229.985L-309.328 229.816L-309.305 229.647L-309.282 229.478L-309.259 229.308L-309.235 229.139L-309.212 228.97L-309.189 228.801L-309.166 228.632L-309.143 228.463L-309.12 228.294L-309.096 228.125L-309.073 227.956L-309.05 227.787L-309.027 227.618L-309.004 227.449L-308.981 227.281L-308.958 227.112L-308.935 226.943L-308.911 226.774L-308.888 226.606L-308.865 226.437L-308.842 226.268L-308.819 226.1L-308.796 225.931L-308.773 225.763L-308.75 225.594L-308.727 225.426L-308.704 225.257L-308.681 225.089L-308.657 224.92L-308.634 224.752L-308.611 224.584L-308.588 224.415L-308.565 224.247L-308.542 224.079L-308.519 223.91L-308.496 223.742L-308.473 223.574L-308.45 223.406L-308.427 223.238L-308.404 223.07L-308.381 222.902L-308.358 222.734L-308.335 222.566L-308.312 222.398L-308.289 222.23L-308.266 222.062L-308.243 221.894L-308.22 221.726L-308.197 221.559L-308.174 221.391L-308.151 221.223L-308.128 221.055L-308.105 220.888L-308.082 220.72L-308.059 220.553L-308.036 220.385L-308.013 220.217L-307.99 220.05L-307.967 219.882L-307.944 219.715L-307.922 219.548L-307.899 219.38L-307.876 219.213L-307.853 219.045L-307.83 218.878L-307.807 218.711L-307.784 218.544L-307.761 218.376L-307.738 218.209L-307.715 218.042L-307.692 217.875L-307.67 217.708L-307.647 217.541L-307.624 217.374L-307.601 217.207L-307.578 217.04L-307.555 216.873L-307.532 216.706L-307.509 216.539L-307.487 216.372L-307.464 216.205L-307.441 216.039L-307.418 215.872L-307.395 215.705L-307.372 215.538L-307.35 215.372L-307.327 215.205L-307.304 215.038L-307.281 214.872L-307.258 214.705L-307.235 214.539L-307.213 214.372L-307.19 214.206L-307.167 214.039L-307.144 213.873L-307.121 213.707L-307.099 213.54L-307.076 213.374L-307.053 213.208L-307.03 213.042L-307.008 212.875L-306.985 212.709L-306.962 212.543L-306.939 212.377L-306.917 212.211L-306.894 212.045L-306.871 211.879L-306.848 211.713L-306.826 211.547L-306.803 211.381L-306.78 211.215L-306.757 211.049L-306.735 210.883L-306.712 210.717L-306.689 210.551L-306.667 210.386L-306.644 210.22L-306.621 210.054L-306.598 209.889L-306.576 209.723L-306.553 209.557L-306.53 209.392L-306.508 209.226L-306.485 209.061L-306.462 208.895L-306.44 208.73L-306.417 208.564L-306.394 208.399L-306.372 208.234L-306.349 208.068L-306.326 207.903L-306.304 207.738L-306.281 207.572L-306.259 207.407L-306.236 207.242L-306.213 207.077L-306.191 206.912L-306.168 206.747L-306.145 206.582L-306.123 206.417L-306.1 206.252L-306.078 206.087L-306.055 205.922L-306.032 205.757L-306.01 205.592L-305.987 205.427L-305.965 205.262L-305.942 205.097L-305.92 204.933L-305.897 204.768L-305.874 204.603L-305.852 204.439L-305.829 204.274L-305.807 204.109L-305.784 203.945L-305.762 203.78L-305.739 203.616L-305.717 203.451L-305.694 203.287L-305.672 203.122L-305.649 202.958L-305.627 202.794L-305.604 202.629L-305.582 202.465L-305.559 202.301L-305.537 202.136L-305.514 201.972L-305.492 201.808L-305.469 201.644L-305.447 201.48L-305.424 201.316L-305.402 201.152L-305.379 200.988L-305.357 200.824L-305.334 200.66L-305.312 200.496L-305.289 200.332L-305.267 200.168L-305.244 200.004L-305.222 199.84L-305.2 199.676L-305.177 199.513L-305.155 199.349L-305.132 199.185L-305.11 199.021L-305.087 198.858L-305.065 198.694L-305.043 198.531L-305.02 198.367L-304.998 198.204L-304.975 198.04L-304.953 197.877L-304.931 197.713L-304.908 197.55L-304.886 197.386L-304.864 197.223L-304.841 197.06L-304.819 196.897L-304.796 196.733L-304.774 196.57L-304.752 196.407L-304.729 196.244L-304.707 196.081L-304.685 195.918L-304.662 195.754L-304.64 195.591L-304.618 195.428L-304.595 195.265L-304.573 195.103L-304.551 194.94L-304.528 194.777L-304.506 194.614L-304.484 194.451L-304.461 194.288L-304.439 194.126L-304.417 193.963L-304.395 193.8L-304.372 193.637L-304.35 193.475L-304.328 193.312L-304.306 193.15L-304.283 192.987L-304.261 192.825L-304.239 192.662L-304.216 192.5L-304.194 192.337L-304.172 192.175L-304.15 192.012L-304.128 191.85L-304.105 191.688L-304.083 191.526L-304.061 191.363L-304.039 191.201L-304.016 191.039L-303.994 190.877L-303.972 190.715L-303.95 190.553L-303.928 190.39L-303.905 190.228L-303.883 190.066L-303.861 189.904L-303.839 189.743L-303.817 189.581L-303.794 189.419L-303.772 189.257L-303.75 189.095L-303.728 188.933L-303.706 188.772L-303.684 188.61L-303.661 188.448L-303.639 188.286L-303.617 188.125L-303.595 187.963L-303.573 187.802L-303.551 187.64L-303.529 187.479L-303.507 187.317L-303.484 187.156L-303.462 186.994L-303.44 186.833L-303.418 186.671L-303.396 186.51L-303.374 186.349L-303.352 186.187L-303.33 186.026L-303.308 185.865L-303.286 185.704L-303.264 185.543L-303.241 185.382L-303.219 185.22L-303.197 185.059L-303.175 184.898L-303.153 184.737L-303.131 184.576L-303.109 184.415L-303.087 184.255L-303.065 184.094L-303.043 183.933L-303.021 183.772L-302.999 183.611L-302.977 183.45L-302.955 183.29L-302.933 183.129L-302.911 182.968L-302.889 182.808L-302.867 182.647L-302.845 182.487L-302.823 182.326L-302.801 182.166L-302.779 182.005L-302.757 181.845L-302.735 181.684L-302.713 181.524L-302.691 181.363L-302.669 181.203L-302.647 181.043L-302.625 180.882L-302.603 180.722L-302.581 180.562L-302.559 180.402L-302.537 180.242L-302.515 180.082L-302.494 179.921L-302.472 179.761L-302.45 179.601L-302.428 179.441L-302.406 179.281L-302.384 179.121L-302.362 178.962L-302.34 178.802L-302.318 178.642L-302.296 178.482L-302.274 178.322L-302.253 178.162L-302.231 178.003L-302.209 177.843L-302.187 177.683L-302.165 177.524L-302.143 177.364L-302.121 177.205L-302.099 177.045L-302.078 176.885L-302.056 176.726L-302.034 176.567L-302.012 176.407L-301.99 176.248L-301.968 176.088L-301.947 175.929L-301.925 175.77L-301.903 175.61L-301.881 175.451L-301.859 175.292L-301.838 175.133L-301.816 174.974L-301.794 174.815L-301.772 174.655L-301.75 174.496L-301.729 174.337L-301.707 174.178L-301.685 174.019L-301.663 173.86L-301.642 173.702L-301.62 173.543L-301.598 173.384L-301.576 173.225L-301.554 173.066L-301.533 172.907L-301.511 172.749L-301.489 172.59L-301.468 172.431L-301.446 172.273L-301.424 172.114L-301.402 171.956L-301.381 171.797L-301.359 171.638L-301.337 171.48L-301.315 171.322L-301.294 171.163L-301.272 171.005L-301.25 170.846L-301.229 170.688L-301.207 170.53L-301.185 170.371L-301.164 170.213L-301.142 170.055L-301.12 169.897L-301.099 169.739L-301.077 169.581L-301.055 169.422L-301.034 169.264L-301.012 169.106L-300.99 168.948L-300.969 168.79L-300.947 168.632L-300.926 168.475L-300.904 168.317L-300.882 168.159L-300.861 168.001L-300.839 167.843L-300.817 167.685L-300.796 167.528L-300.774 167.37L-300.753 167.212L-300.731 167.055L-300.709 166.897L-300.688 166.74L-300.666 166.582L-300.645 166.425L-300.623 166.267L-300.602 166.11L-300.58 165.952L-300.558 165.795L-300.537 165.637L-300.515 165.48L-300.494 165.323L-300.472 165.165L-300.451 165.008L-300.429 164.851L-300.408 164.694L-300.386 164.537L-300.365 164.38L-300.343 164.222L-300.322 164.065L-300.3 163.908L-300.279 163.751L-300.257 163.594L-300.236 163.437L-300.214 163.281L-300.193 163.124L-300.171 162.967L-300.15 162.81L-300.128 162.653L-300.107 162.496L-300.085 162.34L-300.064 162.183L-300.042 162.026L-300.021 161.87L-299.999 161.713L-299.978 161.557L-299.956 161.4L-299.935 161.244L-299.914 161.087L-299.892 160.931L-299.871 160.774L-299.849 160.618L-299.828 160.461L-299.806 160.305L-299.785 160.149L-299.764 159.992L-299.742 159.836L-299.721 159.68L-299.699 159.524L-299.678 159.368L-299.657 159.212L-299.635 159.056L-299.614 158.899L-299.593 158.743L-299.571 158.587Z" stroke="url(#paint5_linear_1430_1732)" stroke-width="1.5"/>
<path opacity="0.5" d="M637.157 367.733L637.157 367.734L-310.427 237.934C-295.415 140.69 -285.966 71.788 -282.085 31.2426C-239.126 49.6799 -211.587 76.653 -183.933 103.739C-177.434 110.104 -170.929 116.475 -164.216 122.743C-128.728 155.88 -87.5751 185.952 -11.157 196.42C34.2343 202.637 69.4658 198.843 99.613 190.028C129.734 181.221 154.753 167.407 179.695 153.636L179.723 153.621C204.689 139.837 229.578 126.097 259.529 117.34C289.465 108.587 324.483 104.805 369.674 110.995C448.079 121.735 488.618 153.11 524.259 187.266C529.651 192.434 534.933 197.668 540.22 202.907C569.781 232.2 599.476 261.626 649.154 280.148L649.144 280.224L649.113 280.447L649.083 280.67L649.052 280.892L649.022 281.115L648.991 281.337L648.961 281.56L648.931 281.782L648.9 282.003L648.87 282.225L648.84 282.446L648.809 282.668L648.779 282.889L648.749 283.109L648.718 283.33L648.688 283.55L648.658 283.771L648.628 283.991L648.598 284.211L648.568 284.43L648.538 284.65L648.508 284.869L648.478 285.088L648.448 285.307L648.418 285.525L648.388 285.744L648.358 285.962L648.328 286.18L648.298 286.398L648.268 286.616L648.239 286.833L648.209 287.051L648.179 287.268L648.149 287.485L648.12 287.701L648.09 287.918L648.06 288.134L648.031 288.35L648.001 288.566L647.972 288.782L647.942 288.997L647.913 289.213L647.883 289.428L647.854 289.643L647.824 289.857L647.795 290.072L647.766 290.286L647.736 290.5L647.707 290.714L647.678 290.928L647.648 291.142L647.619 291.355L647.59 291.568L647.561 291.781L647.532 291.994L647.503 292.207L647.473 292.419L647.444 292.631L647.415 292.843L647.386 293.055L647.357 293.267L647.328 293.478L647.299 293.689L647.271 293.9L647.242 294.111L647.213 294.322L647.184 294.532L647.155 294.742L647.126 294.952L647.098 295.162L647.069 295.372L647.04 295.581L647.012 295.791L646.983 296L646.954 296.208L646.926 296.417L646.897 296.626L646.869 296.834L646.84 297.042L646.812 297.25L646.783 297.457L646.755 297.665L646.726 297.872L646.698 298.079L646.67 298.286L646.641 298.493L646.613 298.699L646.585 298.906L646.557 299.112L646.528 299.318L646.5 299.524L646.472 299.729L646.444 299.934L646.416 300.14L646.388 300.344L646.36 300.549L646.332 300.754L646.304 300.958L646.276 301.162L646.248 301.366L646.22 301.57L646.192 301.774L646.164 301.977L646.136 302.18L646.109 302.383L646.081 302.586L646.053 302.788L646.025 302.991L645.998 303.193L645.97 303.395L645.942 303.597L645.915 303.798L645.887 304L645.86 304.201L645.832 304.402L645.804 304.603L645.777 304.804L645.75 305.004L645.722 305.204L645.695 305.404L645.667 305.604L645.64 305.804L645.613 306.003L645.585 306.202L645.558 306.402L645.531 306.6L645.504 306.799L645.476 306.998L645.449 307.196L645.422 307.394L645.395 307.592L645.368 307.789L645.341 307.987L645.314 308.184L645.287 308.381L645.26 308.578L645.233 308.775L645.206 308.971L645.179 309.168L645.152 309.364L645.125 309.56L645.099 309.756L645.072 309.951L645.045 310.146L645.018 310.342L644.992 310.536L644.965 310.731L644.938 310.926L644.912 311.12L644.885 311.314L644.859 311.508L644.832 311.702L644.806 311.896L644.779 312.089L644.753 312.282L644.726 312.475L644.7 312.668L644.673 312.861L644.647 313.053L644.621 313.245L644.594 313.437L644.568 313.629L644.542 313.821L644.516 314.012L644.489 314.203L644.463 314.394L644.437 314.585L644.411 314.776L644.385 314.966L644.359 315.156L644.333 315.346L644.307 315.536L644.281 315.726L644.255 315.915L644.229 316.105L644.203 316.294L644.177 316.483L644.151 316.671L644.126 316.86L644.1 317.048L644.074 317.236L644.048 317.424L644.023 317.612L643.997 317.799L643.971 317.986L643.946 318.174L643.92 318.36L643.894 318.547L643.869 318.734L643.843 318.92L643.818 319.106L643.792 319.292L643.767 319.478L643.742 319.663L643.716 319.849L643.691 320.034L643.665 320.219L643.64 320.404L643.615 320.588L643.59 320.772L643.564 320.957L643.539 321.141L643.514 321.324L643.489 321.508L643.464 321.691L643.439 321.874L643.414 322.057L643.389 322.24L643.364 322.423L643.339 322.605L643.314 322.787L643.289 322.969L643.264 323.151L643.239 323.333L643.214 323.514L643.189 323.696L643.164 323.877L643.14 324.057L643.115 324.238L643.09 324.419L643.065 324.599L643.041 324.779L643.016 324.959L642.992 325.138L642.967 325.318L642.942 325.497L642.918 325.676L642.893 325.855L642.869 326.034L642.844 326.212L642.82 326.39L642.796 326.569L642.771 326.746L642.747 326.924L642.723 327.102L642.698 327.279L642.674 327.456L642.65 327.633L642.626 327.81L642.601 327.986L642.577 328.163L642.553 328.339L642.529 328.515L642.505 328.69L642.481 328.866L642.457 329.041L642.433 329.216L642.409 329.391L642.385 329.566L642.361 329.741L642.337 329.915L642.313 330.089L642.29 330.263L642.266 330.437L642.242 330.611L642.218 330.784L642.194 330.957L642.171 331.13L642.147 331.303L642.123 331.475L642.1 331.648L642.076 331.82L642.053 331.992L642.029 332.164L642.006 332.336L641.982 332.507L641.959 332.678L641.935 332.849L641.912 333.02L641.889 333.191L641.865 333.361L641.842 333.531L641.819 333.701L641.795 333.871L641.772 334.041L641.749 334.21L641.726 334.38L641.702 334.549L641.679 334.718L641.656 334.886L641.633 335.055L641.61 335.223L641.587 335.391L641.564 335.559L641.541 335.727L641.518 335.894L641.495 336.062L641.472 336.229L641.449 336.396L641.427 336.562L641.404 336.729L641.381 336.895L641.358 337.061L641.336 337.227L641.313 337.393L641.29 337.559L641.268 337.724L641.245 337.889L641.222 338.054L641.2 338.219L641.177 338.383L641.155 338.548L641.132 338.712L641.11 338.876L641.087 339.04L641.065 339.203L641.043 339.367L641.02 339.53L640.998 339.693L640.976 339.856L640.953 340.018L640.931 340.181L640.909 340.343L640.887 340.505L640.864 340.667L640.842 340.828L640.82 340.99L640.798 341.151L640.776 341.312L640.754 341.473L640.732 341.634L640.71 341.794L640.688 341.954L640.666 342.114L640.644 342.274L640.622 342.434L640.601 342.593L640.579 342.753L640.557 342.912L640.535 343.071L640.513 343.229L640.492 343.388L640.47 343.546L640.448 343.704L640.427 343.862L640.405 344.02L640.384 344.177L640.362 344.335L640.34 344.492L640.319 344.649L640.298 344.805L640.276 344.962L640.255 345.118L640.233 345.274L640.212 345.43L640.191 345.586L640.169 345.742L640.148 345.897L640.127 346.052L640.106 346.207L640.084 346.362L640.063 346.517L640.042 346.671L640.021 346.825L640 346.979L639.979 347.133L639.958 347.286L639.937 347.44L639.916 347.593L639.895 347.746L639.874 347.899L639.853 348.052L639.832 348.204L639.811 348.356L639.79 348.508L639.77 348.66L639.749 348.812L639.728 348.963L639.707 349.114L639.687 349.265L639.666 349.416L639.645 349.567L639.625 349.717L639.604 349.868L639.584 350.018L639.563 350.168L639.543 350.317L639.522 350.467L639.502 350.616L639.481 350.765L639.461 350.914L639.44 351.063L639.42 351.211L639.4 351.359L639.379 351.508L639.359 351.655L639.339 351.803L639.319 351.951L639.299 352.098L639.278 352.245L639.258 352.392L639.238 352.539L639.218 352.685L639.198 352.832L639.178 352.978L639.158 353.124L639.138 353.27L639.118 353.415L639.098 353.56L639.078 353.706L639.059 353.851L639.039 353.995L639.019 354.14L638.999 354.284L638.979 354.428L638.96 354.572L638.94 354.716L638.92 354.86L638.901 355.003L638.881 355.146L638.861 355.289L638.842 355.432L638.822 355.575L638.803 355.717L638.783 355.86L638.764 356.002L638.744 356.143L638.725 356.285L638.706 356.427L638.686 356.568L638.667 356.709L638.648 356.85L638.628 356.99L638.609 357.131L638.59 357.271L638.571 357.411L638.552 357.551L638.533 357.691L638.513 357.83L638.494 357.969L638.475 358.109L638.456 358.247L638.437 358.386L638.418 358.525L638.399 358.663L638.38 358.801L638.362 358.939L638.343 359.077L638.324 359.214L638.305 359.352L638.286 359.489L638.267 359.626L638.249 359.762L638.23 359.899L638.211 360.035L638.193 360.171L638.174 360.307L638.155 360.443L638.137 360.579L638.118 360.714L638.1 360.849L638.081 360.984L638.063 361.119L638.044 361.254L638.026 361.388L638.008 361.522L637.989 361.656L637.971 361.79L637.953 361.924L637.934 362.057L637.916 362.19L637.898 362.323L637.88 362.456L637.862 362.589L637.843 362.721L637.825 362.853L637.807 362.985L637.789 363.117L637.771 363.249L637.753 363.38L637.735 363.511L637.717 363.643L637.699 363.773L637.681 363.904L637.664 364.035L637.646 364.165L637.628 364.295L637.61 364.425L637.592 364.554L637.575 364.684L637.557 364.813L637.539 364.942L637.522 365.071L637.504 365.2L637.486 365.328L637.469 365.457L637.451 365.585L637.434 365.713L637.416 365.84L637.399 365.968L637.381 366.095L637.364 366.222L637.346 366.349L637.329 366.476L637.312 366.603L637.294 366.729L637.277 366.855L637.26 366.981L637.243 367.107L637.225 367.233L637.208 367.358L637.191 367.483L637.174 367.608L637.157 367.733Z" stroke="url(#paint6_linear_1430_1732)" stroke-width="1.5"/>
<path d="M-296.241 134.268C-200.385 147.486 -154.645 170.788 -108.86 194.112L-108.849 194.118C-62.8701 217.541 -16.8427 240.987 79.7609 254.219C176.366 267.453 227.004 257.249 277.589 247.053L277.602 247.05C328.102 236.871 378.554 226.702 474.916 239.901C560.59 251.637 606.341 271.407 647.681 292.073C643.781 319.769 640.132 346.011 636.735 370.798L-310.861 240.996L-296.241 134.268Z" stroke="url(#paint7_linear_1430_1732)" stroke-width="1.5"/>
</g>
<g opacity="0.6" filter="url(#filter0_d_1430_1732)">
<path d="M853.223 -94.5C853.223 -76.7146 842.928 -55.7008 826.085 -35.0921C809.251 -14.4955 785.916 5.64476 759.932 21.678C733.947 37.7118 705.33 49.6267 677.936 53.7922C650.543 57.9576 624.4 54.3715 603.314 39.4439C582.089 24.4168 556.835 12.9916 530.914 3.18723C515.489 -2.64705 499.803 -7.91547 484.586 -13.0266C474.246 -16.4996 464.122 -19.9001 454.442 -23.3561C430.491 -31.9081 409.233 -40.8099 393.964 -52.032C378.708 -63.2451 369.473 -76.7429 369.473 -94.5C369.473 -130.124 396.438 -162.463 440.228 -185.917C484.002 -209.362 544.501 -223.875 611.348 -223.875C678.194 -223.875 738.693 -209.362 782.467 -185.917C826.257 -162.463 853.223 -130.124 853.223 -94.5Z" stroke="url(#paint8_linear_1430_1732)" stroke-width="0.75" shape-rendering="crispEdges"/>
</g>
<g opacity="0.6" filter="url(#filter1_d_1430_1732)">
<path d="M1076.62 -86.25C1076.62 -50.5459 1055.12 -1.71513 1013.12 30.5121C971.132 62.7201 908.645 78.3569 826.631 47.6488C787.876 33.1378 754.382 21.9893 725.827 12.4853C724.121 11.9176 722.433 11.3557 720.763 10.7994C691.121 0.927368 667.023 -7.20807 648.059 -15.6579C629.093 -24.1083 615.305 -32.8554 606.255 -43.9281C597.216 -54.9878 592.875 -68.4024 592.875 -86.25C592.875 -121.874 619.841 -154.213 663.63 -177.667C707.405 -201.112 767.904 -215.625 834.75 -215.625C901.596 -215.625 962.095 -201.112 1005.87 -177.667C1049.66 -154.213 1076.62 -121.874 1076.62 -86.25Z" stroke="url(#paint9_linear_1430_1732)" stroke-width="0.75" shape-rendering="crispEdges"/>
</g>
<g opacity="0.6" filter="url(#filter2_d_1430_1732)">
<path d="M1566.37 -90.0002C1566.37 -54.2819 1548.98 -9.37239 1520.64 20.883C1506.48 36.0062 1489.6 47.4499 1470.81 52.2666C1452.04 57.0814 1431.33 55.2822 1409.49 43.8748C1396.28 36.9758 1383.7 30.7309 1371.88 24.8603C1364.08 20.9904 1356.62 17.2831 1349.51 13.6583C1331.62 4.52792 1316 -4.08992 1303.12 -13.5079C1290.25 -22.924 1280.13 -33.1305 1273.22 -45.4319C1266.32 -57.7304 1262.62 -72.1459 1262.62 -90.0002C1262.62 -161.375 1330.56 -219.334 1414.5 -219.334C1498.44 -219.334 1566.37 -161.375 1566.37 -90.0002Z" stroke="url(#paint10_linear_1430_1732)" stroke-width="0.75" shape-rendering="crispEdges"/>
</g>
</g>
<defs>
<filter id="filter0_d_1430_1732" x="363.098" y="-224.25" width="496.5" height="292.032" filterUnits="userSpaceOnUse" color-interpolation-filters="sRGB">
<feFlood flood-opacity="0" result="BackgroundImageFix"/>
<feColorMatrix in="SourceAlpha" type="matrix" values="0 0 0 0 0 0 0 0 0 0 0 0 0 0 0 0 0 0 127 0" result="hardAlpha"/>
<feOffset dy="6"/>
<feGaussianBlur stdDeviation="3"/>
<feComposite in2="hardAlpha" operator="out"/>
<feColorMatrix type="matrix" values="0 0 0 0 0 0 0 0 0 0 0 0 0 0 0 0 0 0 0.25 0"/>
<feBlend mode="normal" in2="BackgroundImageFix" result="effect1_dropShadow_1430_1732"/>
<feBlend mode="normal" in="SourceGraphic" in2="effect1_dropShadow_1430_1732" result="shape"/>
</filter>
<filter id="filter1_d_1430_1732" x="586.5" y="-216" width="496.5" height="292.589" filterUnits="userSpaceOnUse" color-interpolation-filters="sRGB">
<feFlood flood-opacity="0" result="BackgroundImageFix"/>
<feColorMatrix in="SourceAlpha" type="matrix" values="0 0 0 0 0 0 0 0 0 0 0 0 0 0 0 0 0 0 127 0" result="hardAlpha"/>
<feOffset dy="6"/>
<feGaussianBlur stdDeviation="3"/>
<feComposite in2="hardAlpha" operator="out"/>
<feColorMatrix type="matrix" values="0 0 0 0 0 0 0 0 0 0 0 0 0 0 0 0 0 0 0.25 0"/>
<feBlend mode="normal" in2="BackgroundImageFix" result="effect1_dropShadow_1430_1732"/>
<feBlend mode="normal" in="SourceGraphic" in2="effect1_dropShadow_1430_1732" result="shape"/>
</filter>
<filter id="filter2_d_1430_1732" x="1256.25" y="-219.709" width="316.5" height="286.85" filterUnits="userSpaceOnUse" color-interpolation-filters="sRGB">
<feFlood flood-opacity="0" result="BackgroundImageFix"/>
<feColorMatrix in="SourceAlpha" type="matrix" values="0 0 0 0 0 0 0 0 0 0 0 0 0 0 0 0 0 0 127 0" result="hardAlpha"/>
<feOffset dy="6"/>
<feGaussianBlur stdDeviation="3"/>
<feComposite in2="hardAlpha" operator="out"/>
<feColorMatrix type="matrix" values="0 0 0 0 0 0 0 0 0 0 0 0 0 0 0 0 0 0 0.25 0"/>
<feBlend mode="normal" in2="BackgroundImageFix" result="effect1_dropShadow_1430_1732"/>
<feBlend mode="normal" in="SourceGraphic" in2="effect1_dropShadow_1430_1732" result="shape"/>
</filter>
<linearGradient id="paint0_linear_1430_1732" x1="2113.48" y1="157.755" x2="2141.05" y2="259.767" gradientUnits="userSpaceOnUse">
<stop stop-color="#FFE353" stop-opacity="0.94"/>
<stop offset="1" stop-color="#FF9224"/>
</linearGradient>
<linearGradient id="paint1_linear_1430_1732" x1="2107.67" y1="134.447" x2="2142.04" y2="261.805" gradientUnits="userSpaceOnUse">
<stop stop-color="#FFE353" stop-opacity="0.94"/>
<stop offset="1" stop-color="#FF9224"/>
</linearGradient>
<linearGradient id="paint2_linear_1430_1732" x1="2100.46" y1="109.896" x2="2140.87" y2="259.817" gradientUnits="userSpaceOnUse">
<stop stop-color="#FFE353" stop-opacity="0.94"/>
<stop offset="1" stop-color="#FF9224"/>
</linearGradient>
<linearGradient id="paint3_linear_1430_1732" x1="2121.58" y1="187.318" x2="2141.77" y2="261.876" gradientUnits="userSpaceOnUse">
<stop stop-color="#FFE353" stop-opacity="0.94"/>
<stop offset="1" stop-color="#FF9224"/>
</linearGradient>
<linearGradient id="paint4_linear_1430_1732" x1="203.58" y1="160.883" x2="183.417" y2="306.346" gradientUnits="userSpaceOnUse">
<stop stop-color="#FFE353" stop-opacity="0.94"/>
<stop offset="1" stop-color="#FF9224"/>
</linearGradient>
<linearGradient id="paint5_linear_1430_1732" x1="208.77" y1="127.907" x2="183.527" y2="309.484" gradientUnits="userSpaceOnUse">
<stop stop-color="#FFE353" stop-opacity="0.94"/>
<stop offset="1" stop-color="#FF9224"/>
</linearGradient>
<linearGradient id="paint6_linear_1430_1732" x1="212.934" y1="92.5963" x2="183.147" y2="306.313" gradientUnits="userSpaceOnUse">
<stop stop-color="#FFE353" stop-opacity="0.94"/>
<stop offset="1" stop-color="#FF9224"/>
</linearGradient>
<linearGradient id="paint7_linear_1430_1732" x1="197.881" y1="203.101" x2="183.189" y2="309.435" gradientUnits="userSpaceOnUse">
<stop stop-color="#FFE353" stop-opacity="0.94"/>
<stop offset="1" stop-color="#FF9224"/>
</linearGradient>
<linearGradient id="paint8_linear_1430_1732" x1="621.759" y1="-219.412" x2="620.125" y2="55.7889" gradientUnits="userSpaceOnUse">
<stop stop-color="#FFE353" stop-opacity="0.94"/>
<stop offset="1" stop-color="#FF9224"/>
</linearGradient>
<linearGradient id="paint9_linear_1430_1732" x1="845.161" y1="-211.152" x2="843.521" y2="64.5959" gradientUnits="userSpaceOnUse">
<stop stop-color="#FFE353" stop-opacity="0.94"/>
<stop offset="1" stop-color="#FF9224"/>
</linearGradient>
<linearGradient id="paint10_linear_1430_1732" x1="1421.04" y1="-214.961" x2="1418.54" y2="55.1344" gradientUnits="userSpaceOnUse">
<stop stop-color="#FFE353" stop-opacity="0.94"/>
<stop offset="1" stop-color="#FF9224"/>
</linearGradient>
<clipPath id="clip0_1430_1732">
<path d="M0 0H2304V189H0V0Z" fill="white"/>
</clipPath>
</defs>
</svg>
