<svg width="392" height="36" viewBox="0 0 392 36" fill="none" xmlns="http://www.w3.org/2000/svg">
<path d="M27.5665 0.750999V7.5325H18.3595V35.5H9.895V7.5325H0.688V0.750999H27.5665ZM53.4461 29.362H40.4771L38.3981 35.5H29.5376L42.1106 0.750999H51.9116L64.4846 35.5H55.5251L53.4461 29.362ZM51.2681 22.828L46.9616 10.1065L42.7046 22.828H51.2681ZM89.3487 17.68C91.3617 18.109 92.9787 19.1155 94.1997 20.6995C95.4207 22.2505 96.0312 24.0325 96.0312 26.0455C96.0312 28.9495 95.0082 31.2595 92.9622 32.9755C90.9492 34.6585 88.1277 35.5 84.4977 35.5H68.3112V0.750999H83.9532C87.4842 0.750999 90.2397 1.5595 92.2197 3.1765C94.2327 4.7935 95.2392 6.988 95.2392 9.76C95.2392 11.806 94.6947 13.5055 93.6057 14.8585C92.5497 16.2115 91.1307 17.152 89.3487 17.68ZM76.7757 14.809H82.3197C83.7057 14.809 84.7617 14.512 85.4877 13.918C86.2467 13.291 86.6262 12.3835 86.6262 11.1955C86.6262 10.0075 86.2467 9.1 85.4877 8.473C84.7617 7.846 83.7057 7.5325 82.3197 7.5325H76.7757V14.809ZM83.0127 28.669C84.4317 28.669 85.5207 28.3555 86.2797 27.7285C87.0717 27.0685 87.4677 26.128 87.4677 24.907C87.4677 23.686 87.0552 22.729 86.2302 22.036C85.4382 21.343 84.3327 20.9965 82.9137 20.9965H76.7757V28.669H83.0127ZM109.405 28.966H120.493V35.5H100.941V0.750999H109.405V28.966ZM132.995 7.5325V14.5615H144.33V21.0955H132.995V28.7185H145.815V35.5H124.53V0.750999H145.815V7.5325H132.995ZM182.838 17.68C184.851 18.109 186.468 19.1155 187.689 20.6995C188.91 22.2505 189.52 24.0325 189.52 26.0455C189.52 28.9495 188.497 31.2595 186.451 32.9755C184.438 34.6585 181.617 35.5 177.987 35.5H161.8V0.750999H177.442C180.973 0.750999 183.729 1.5595 185.709 3.1765C187.722 4.7935 188.728 6.988 188.728 9.76C188.728 11.806 188.184 13.5055 187.095 14.8585C186.039 16.2115 184.62 17.152 182.838 17.68ZM170.265 14.809H175.809C177.195 14.809 178.251 14.512 178.977 13.918C179.736 13.291 180.115 12.3835 180.115 11.1955C180.115 10.0075 179.736 9.1 178.977 8.473C178.251 7.846 177.195 7.5325 175.809 7.5325H170.265V14.809ZM176.502 28.669C177.921 28.669 179.01 28.3555 179.769 27.7285C180.561 27.0685 180.957 26.128 180.957 24.907C180.957 23.686 180.544 22.729 179.719 22.036C178.927 21.343 177.822 20.9965 176.403 20.9965H170.265V28.669H176.502ZM210.864 35.8465C207.597 35.8465 204.594 35.0875 201.855 33.5695C199.149 32.0515 196.987 29.9395 195.37 27.2335C193.786 24.4945 192.994 21.4255 192.994 18.0265C192.994 14.6275 193.786 11.575 195.37 8.869C196.987 6.163 199.149 4.051 201.855 2.533C204.594 1.015 207.597 0.255999 210.864 0.255999C214.131 0.255999 217.117 1.015 219.823 2.533C222.562 4.051 224.707 6.163 226.258 8.869C227.842 11.575 228.634 14.6275 228.634 18.0265C228.634 21.4255 227.842 24.4945 226.258 27.2335C224.674 29.9395 222.529 32.0515 219.823 33.5695C217.117 35.0875 214.131 35.8465 210.864 35.8465ZM210.864 28.1245C213.636 28.1245 215.847 27.2005 217.497 25.3525C219.18 23.5045 220.021 21.0625 220.021 18.0265C220.021 14.9575 219.18 12.5155 217.497 10.7005C215.847 8.8525 213.636 7.9285 210.864 7.9285C208.059 7.9285 205.815 8.836 204.132 10.651C202.482 12.466 201.657 14.9245 201.657 18.0265C201.657 21.0955 202.482 23.554 204.132 25.402C205.815 27.217 208.059 28.1245 210.864 28.1245ZM249.777 35.8465C246.51 35.8465 243.507 35.0875 240.768 33.5695C238.062 32.0515 235.901 29.9395 234.284 27.2335C232.7 24.4945 231.908 21.4255 231.908 18.0265C231.908 14.6275 232.7 11.575 234.284 8.869C235.901 6.163 238.062 4.051 240.768 2.533C243.507 1.015 246.51 0.255999 249.777 0.255999C253.044 0.255999 256.031 1.015 258.737 2.533C261.476 4.051 263.621 6.163 265.172 8.869C266.756 11.575 267.548 14.6275 267.548 18.0265C267.548 21.4255 266.756 24.4945 265.172 27.2335C263.588 29.9395 261.443 32.0515 258.737 33.5695C256.031 35.0875 253.044 35.8465 249.777 35.8465ZM249.777 28.1245C252.549 28.1245 254.76 27.2005 256.41 25.3525C258.093 23.5045 258.935 21.0625 258.935 18.0265C258.935 14.9575 258.093 12.5155 256.41 10.7005C254.76 8.8525 252.549 7.9285 249.777 7.9285C246.972 7.9285 244.728 8.836 243.045 10.651C241.395 12.466 240.57 14.9245 240.57 18.0265C240.57 21.0955 241.395 23.554 243.045 25.402C244.728 27.217 246.972 28.1245 249.777 28.1245ZM292.403 35.5L280.721 20.155V35.5H272.257V0.750999H280.721V15.997L292.304 0.750999H302.254L288.79 17.779L302.749 35.5H292.403ZM315.236 0.750999V35.5H306.772V0.750999H315.236ZM352.456 35.5H343.992L329.835 14.0665V35.5H321.37V0.750999H329.835L343.992 22.2835V0.750999H352.456V35.5ZM381.659 11.74C381.032 10.585 380.124 9.7105 378.936 9.1165C377.781 8.4895 376.412 8.176 374.828 8.176C372.089 8.176 369.894 9.0835 368.244 10.8985C366.594 12.6805 365.769 15.073 365.769 18.076C365.769 21.277 366.627 23.785 368.343 25.6C370.092 27.382 372.485 28.273 375.521 28.273C377.6 28.273 379.349 27.745 380.768 26.689C382.22 25.633 383.276 24.115 383.936 22.135H373.194V15.898H391.608V23.7685C390.981 25.8805 389.909 27.844 388.391 29.659C386.906 31.474 385.008 32.9425 382.698 34.0645C380.388 35.1865 377.781 35.7475 374.877 35.7475C371.445 35.7475 368.376 35.005 365.67 33.52C362.997 32.002 360.902 29.9065 359.384 27.2335C357.899 24.5605 357.156 21.508 357.156 18.076C357.156 14.644 357.899 11.5915 359.384 8.9185C360.902 6.2125 362.997 4.117 365.67 2.632C368.343 1.114 371.396 0.354998 374.828 0.354998C378.986 0.354998 382.484 1.3615 385.322 3.3745C388.193 5.3875 390.09 8.176 391.014 11.74H381.659Z" fill="url(#paint0_linear_1276_2004)"/>
<defs>
<linearGradient id="paint0_linear_1276_2004" x1="204.967" y1="-17.2215" x2="204.826" y2="55.5041" gradientUnits="userSpaceOnUse">
<stop stop-color="#FFE353" stop-opacity="0.94"/>
<stop offset="1" stop-color="#FF9224"/>
</linearGradient>
</defs>
</svg>
