<svg width="12" height="14" viewBox="0 0 12 14" fill="none" xmlns="http://www.w3.org/2000/svg">
<path d="M2.14431 11.1821C1.77545 11.1821 1.43077 11.055 1.18284 10.8192C0.868399 10.5229 0.717224 10.0754 0.771647 9.59164L0.995385 7.63241C1.03771 7.26354 1.26145 6.77374 1.52147 6.50767L6.48605 1.25286C7.72568 -0.0593419 9.01973 -0.0956238 10.3319 1.14401C11.6441 2.38365 11.6804 3.6777 10.4408 4.9899L5.4762 10.2447C5.22223 10.5168 4.75056 10.7708 4.38169 10.8313L2.43457 11.1639C2.33177 11.1699 2.24106 11.1821 2.14431 11.1821ZM8.42713 1.13796C7.96151 1.13796 7.55637 1.42822 7.14517 1.8636L2.18059 7.12452C2.05965 7.25151 1.92057 7.55386 1.89639 7.72922L1.67265 9.68839C1.64846 9.88794 1.69683 10.0512 1.80568 10.154C1.91453 10.2568 2.07779 10.2931 2.27735 10.2629L4.22447 9.93033C4.39984 9.90009 4.69009 9.74281 4.81103 9.61582L9.77561 4.36101C10.5254 3.56281 10.7975 2.82508 9.70304 1.79709C9.21929 1.33147 8.80204 1.13796 8.42713 1.13796Z" fill="white"/>
<path d="M9.2805 6.00005C9.26841 6.00005 9.25027 6.00005 9.23817 6.00005C7.35151 5.81259 5.83372 4.37948 5.54347 2.50492C5.50719 2.25699 5.6765 2.0272 5.92443 1.98487C6.17235 1.94859 6.40214 2.11791 6.44447 2.36583C6.67425 3.82921 7.85946 4.95395 9.33492 5.09908C9.58285 5.12327 9.76426 5.347 9.74007 5.5949C9.70984 5.82469 9.51029 6.00005 9.2805 6.00005Z" fill="white"/>
<path d="M11.4924 13.1351H0.60782C0.359894 13.1351 0.154297 12.9295 0.154297 12.6816C0.154297 12.4336 0.359894 12.228 0.60782 12.228H11.4924C11.7403 12.228 11.9459 12.4336 11.9459 12.6816C11.9459 12.9295 11.7403 13.1351 11.4924 13.1351Z" fill="white"/>
</svg>
