<svg width="25" height="25" viewBox="0 0 25 25" fill="none" xmlns="http://www.w3.org/2000/svg">
<path d="M20.1557 5.36754C19.4112 5.36754 18.7277 4.94035 18.3859 4.28125L17.5071 2.51146C16.9457 1.40076 15.481 0.485352 14.2361 0.485352H11.441C10.1838 0.485352 8.71918 1.40076 8.15772 2.51146L7.27893 4.28125C6.93718 4.94035 6.25368 5.36754 5.50914 5.36754C2.86056 5.36754 0.761227 7.60114 0.932103 10.2375L1.56679 20.3192C1.71325 22.8336 3.06806 24.8963 6.43676 24.8963H19.2281C22.5968 24.8963 23.9394 22.8336 24.0981 20.3192L24.7328 10.2375C24.9036 7.60114 22.8043 5.36754 20.1557 5.36754ZM11.0016 6.89322H14.6633C15.1637 6.89322 15.5787 7.30821 15.5787 7.80863C15.5787 8.30906 15.1637 8.72404 14.6633 8.72404H11.0016C10.5012 8.72404 10.0862 8.30906 10.0862 7.80863C10.0862 7.30821 10.5012 6.89322 11.0016 6.89322ZM12.8324 20.1606C10.5622 20.1606 8.70697 18.3175 8.70697 16.0351C8.70697 13.7527 10.55 11.9097 12.8324 11.9097C15.1149 11.9097 16.9579 13.7527 16.9579 16.0351C16.9579 18.3175 15.1027 20.1606 12.8324 20.1606Z" fill="#292D32"/>
</svg>
