<svg width="2304" height="1296" viewBox="0 0 2304 1296" fill="none" xmlns="http://www.w3.org/2000/svg">
<rect width="2304" height="1296" fill="black"/>
<path d="M1027.74 131.285C1024.79 131.285 1022.43 130.709 1020.67 129.557C1018.9 128.405 1017.64 126.767 1016.89 124.643C1016.13 122.483 1015.75 119.963 1015.75 117.083V100.505C1015.75 97.6248 1016.13 95.1588 1016.89 93.1068C1017.68 91.0188 1018.94 89.4348 1020.67 88.3548C1022.43 87.2388 1024.79 86.6808 1027.74 86.6808C1030.69 86.6808 1033.03 87.2388 1034.76 88.3548C1036.49 89.4708 1037.73 91.0548 1038.49 93.1068C1039.28 95.1588 1039.67 97.6248 1039.67 100.505V117.137C1039.67 119.981 1039.28 122.465 1038.49 124.589C1037.73 126.713 1036.49 128.369 1034.76 129.557C1033.03 130.709 1030.69 131.285 1027.74 131.285ZM1027.74 126.479C1029.36 126.479 1030.58 126.155 1031.41 125.507C1032.24 124.823 1032.8 123.887 1033.09 122.699C1033.37 121.475 1033.52 120.053 1033.52 118.433V99.2628C1033.52 97.6428 1033.37 96.2568 1033.09 95.1048C1032.8 93.9168 1032.24 93.0168 1031.41 92.4048C1030.58 91.7568 1029.36 91.4328 1027.74 91.4328C1026.12 91.4328 1024.88 91.7568 1024.01 92.4048C1023.19 93.0168 1022.63 93.9168 1022.34 95.1048C1022.05 96.2568 1021.91 97.6428 1021.91 99.2628V118.433C1021.91 120.053 1022.05 121.475 1022.34 122.699C1022.63 123.887 1023.19 124.823 1024.01 125.507C1024.88 126.155 1026.12 126.479 1027.74 126.479ZM1063.44 131.285C1060.27 131.285 1057.84 130.655 1056.15 129.395C1054.46 128.135 1053.3 126.371 1052.69 124.103C1052.08 121.799 1051.77 119.117 1051.77 116.057V87.0588H1057.61V116.327C1057.61 118.199 1057.73 119.909 1057.98 121.457C1058.24 123.005 1058.78 124.229 1059.6 125.129C1060.47 126.029 1061.75 126.479 1063.44 126.479C1065.17 126.479 1066.44 126.029 1067.27 125.129C1068.1 124.229 1068.64 123.005 1068.89 121.457C1069.14 119.909 1069.27 118.199 1069.27 116.327V87.0588H1075.05V116.057C1075.05 119.117 1074.74 121.799 1074.13 124.103C1073.52 126.371 1072.37 128.135 1070.67 129.395C1069.02 130.655 1066.61 131.285 1063.44 131.285ZM1087.95 130.799V87.0588H1096.75C1099.67 87.0588 1102.08 87.4548 1103.99 88.2468C1105.9 89.0028 1107.3 90.2448 1108.2 91.9728C1109.14 93.6648 1109.61 95.8968 1109.61 98.6688C1109.61 100.361 1109.43 101.909 1109.07 103.313C1108.71 104.681 1108.13 105.851 1107.34 106.823C1106.55 107.759 1105.5 108.443 1104.21 108.875L1110.42 130.799H1104.53L1098.81 110.279H1094.05V130.799H1087.95ZM1094.05 105.905H1096.38C1098.1 105.905 1099.51 105.689 1100.59 105.257C1101.67 104.825 1102.46 104.087 1102.96 103.043C1103.47 101.999 1103.72 100.541 1103.72 98.6688C1103.72 96.1128 1103.25 94.2768 1102.32 93.1608C1101.38 92.0088 1099.53 91.4328 1096.75 91.4328H1094.05V105.905ZM1152.22 131.285C1149.12 131.285 1146.71 130.637 1144.98 129.341C1143.29 128.045 1142.1 126.299 1141.42 124.103C1140.77 121.907 1140.44 119.459 1140.44 116.759V101.315C1140.44 98.3628 1140.77 95.7888 1141.42 93.5928C1142.1 91.3968 1143.29 89.7048 1144.98 88.5168C1146.71 87.2928 1149.12 86.6808 1152.22 86.6808C1154.95 86.6808 1157.11 87.1848 1158.7 88.1928C1160.32 89.2008 1161.47 90.6408 1162.15 92.5128C1162.87 94.3848 1163.23 96.6348 1163.23 99.2628V102.719H1157.45V99.6408C1157.45 98.0208 1157.36 96.5988 1157.18 95.3748C1157.04 94.1148 1156.61 93.1428 1155.89 92.4588C1155.17 91.7748 1153.96 91.4328 1152.27 91.4328C1150.54 91.4328 1149.28 91.8108 1148.49 92.5668C1147.7 93.2868 1147.18 94.3308 1146.92 95.6988C1146.71 97.0308 1146.6 98.5968 1146.6 100.397V117.731C1146.6 119.927 1146.78 121.673 1147.14 122.969C1147.5 124.229 1148.09 125.129 1148.92 125.669C1149.75 126.209 1150.87 126.479 1152.27 126.479C1153.93 126.479 1155.11 126.119 1155.83 125.399C1156.55 124.643 1157 123.617 1157.18 122.321C1157.36 121.025 1157.45 119.513 1157.45 117.785V114.545H1163.23V117.785C1163.23 120.449 1162.91 122.807 1162.26 124.859C1161.61 126.875 1160.5 128.459 1158.91 129.611C1157.33 130.727 1155.1 131.285 1152.22 131.285ZM1175.52 130.799V87.0588H1181.63V105.959H1192.86V87.0588H1198.96V130.799H1192.86V110.333H1181.63V130.799H1175.52ZM1212.27 130.799V87.0588H1229.23V91.5948H1218.38V106.067H1227.18V110.387H1218.38V126.425H1229.34V130.799H1212.27ZM1240.74 130.799V87.0588H1257.65V91.4328H1246.85V106.013H1255.22V110.333H1246.85V130.799H1240.74ZM1278.63 131.285C1276.11 131.285 1274.01 130.745 1272.31 129.665C1270.66 128.585 1269.4 127.091 1268.53 125.183C1267.67 123.275 1267.17 121.061 1267.02 118.541L1272.42 117.083C1272.53 118.631 1272.76 120.125 1273.12 121.565C1273.52 123.005 1274.15 124.193 1275.01 125.129C1275.88 126.029 1277.08 126.479 1278.63 126.479C1280.22 126.479 1281.4 126.047 1282.2 125.183C1283.02 124.283 1283.44 123.005 1283.44 121.349C1283.44 119.369 1282.99 117.785 1282.09 116.597C1281.19 115.373 1280.05 114.149 1278.69 112.925L1271.34 106.445C1269.9 105.185 1268.84 103.817 1268.16 102.341C1267.47 100.829 1267.13 98.9748 1267.13 96.7788C1267.13 93.5748 1268.05 91.0908 1269.88 89.3268C1271.72 87.5628 1274.22 86.6808 1277.39 86.6808C1279.12 86.6808 1280.63 86.9148 1281.93 87.3828C1283.26 87.8148 1284.36 88.4988 1285.22 89.4348C1286.12 90.3708 1286.82 91.5588 1287.33 92.9988C1287.87 94.4028 1288.23 96.0588 1288.41 97.9668L1283.22 99.3708C1283.11 97.9308 1282.9 96.6168 1282.57 95.4288C1282.25 94.2048 1281.67 93.2328 1280.85 92.5128C1280.05 91.7568 1278.9 91.3788 1277.39 91.3788C1275.88 91.3788 1274.69 91.7928 1273.83 92.6208C1273 93.4128 1272.58 94.6008 1272.58 96.1848C1272.58 97.5168 1272.8 98.6148 1273.23 99.4788C1273.7 100.343 1274.44 101.225 1275.45 102.125L1282.84 108.605C1284.5 110.045 1285.96 111.773 1287.22 113.789C1288.48 115.769 1289.11 118.127 1289.11 120.863C1289.11 123.023 1288.66 124.895 1287.76 126.479C1286.86 128.027 1285.62 129.215 1284.03 130.043C1282.48 130.871 1280.68 131.285 1278.63 131.285Z" fill="black"/>
</svg>
